<?xml version="1.0" encoding="UTF-8" standalone="no"?>
<svg
   xmlns:dc="http://purl.org/dc/elements/1.1/"
   xmlns:cc="http://creativecommons.org/ns#"
   xmlns:rdf="http://www.w3.org/1999/02/22-rdf-syntax-ns#"
   xmlns:svg="http://www.w3.org/2000/svg"
   xmlns="http://www.w3.org/2000/svg"
   xmlns:sodipodi="http://sodipodi.sourceforge.net/DTD/sodipodi-0.dtd"
   xmlns:inkscape="http://www.inkscape.org/namespaces/inkscape"
   width="64mm"
   height="64mm"
   viewBox="0 0 64 64"
   version="1.1"
   id="svg923"
   sodipodi:docname="1inch-bnb.svg"
   inkscape:version="1.0.1 (3bc2e813f5, 2020-09-07)"
   inkscape:export-filename="bnb_busd.png"
   inkscape:export-xdpi="136.95"
   inkscape:export-ydpi="136.95">
  <defs
     id="defs917" />
  <sodipodi:namedview
     id="base"
     pagecolor="#ffffff"
     bordercolor="#666666"
     borderopacity="1.0"
     inkscape:pageopacity="0.0"
     inkscape:pageshadow="2"
     inkscape:zoom="0.7"
     inkscape:cx="-45.462981"
     inkscape:cy="17.089162"
     inkscape:document-units="mm"
     inkscape:current-layer="layer1"
     inkscape:document-rotation="0"
     showgrid="false"
     inkscape:window-width="1346"
     inkscape:window-height="1016"
     inkscape:window-x="50"
     inkscape:window-y="27"
     inkscape:window-maximized="0"
     borderlayer="true"
     inkscape:pagecheckerboard="true" />
  <metadata
     id="metadata920">
    <rdf:RDF>
      <cc:Work
         rdf:about="">
        <dc:format>image/svg+xml</dc:format>
        <dc:type
           rdf:resource="http://purl.org/dc/dcmitype/StillImage" />
        <dc:title></dc:title>
      </cc:Work>
    </rdf:RDF>
  </metadata>
  <g
     inkscape:label="Capa 1"
     inkscape:groupmode="layer"
     id="layer1">
    <rect
       style="display:inline;opacity:1;fill:#f6f9e4;fill-opacity:1;stroke:#d3b6e4;stroke-width:1.48431;stroke-linecap:round;stroke-linejoin:round;stroke-miterlimit:4;stroke-dasharray:none;stroke-opacity:1"
       id="rect1189"
       width="43.744244"
       height="53.233257"
       x="10.77352"
       y="8.1702852" />
    <rect
       style="display:inline;opacity:1;fill:#e9e0ee;fill-opacity:1;stroke:#c793e6;stroke-width:0.634423;stroke-linecap:round;stroke-linejoin:round;stroke-miterlimit:4;stroke-dasharray:none;stroke-opacity:1"
       id="rect1990"
       width="27.77866"
       height="45.689117"
       x="18.723688"
       y="15.07797"
       ry="0.84781075" />
    <rect
       style="display:inline;opacity:1;fill:#dfd2e6;fill-opacity:1;stroke:none;stroke-width:0.634423;stroke-linecap:round;stroke-linejoin:round;stroke-miterlimit:4;stroke-dasharray:none;stroke-opacity:1"
       id="rect1990-7"
       width="26.185312"
       height="45.388771"
       x="20.596075"
       y="16.455677"
       ry="0.84781075" />
    <rect
       style="display:inline;opacity:1;fill:none;fill-opacity:1;stroke:#c793e6;stroke-width:0.634423;stroke-linecap:round;stroke-linejoin:round;stroke-miterlimit:4;stroke-dasharray:none;stroke-opacity:1"
       id="rect1990-3"
       width="27.77866"
       height="45.689121"
       x="18.723688"
       y="15.07797"
       ry="0.84781075" />
    <rect
       style="display:inline;opacity:1;fill:#e9e0ee;fill-opacity:1;stroke:#d3b6e4;stroke-width:1.48431;stroke-linecap:round;stroke-linejoin:round;stroke-miterlimit:4;stroke-dasharray:none;stroke-opacity:1"
       id="rect1189-3"
       width="43.867428"
       height="9.105135"
       x="10.711927"
       y="2.0559349" />
    <rect
       style="display:inline;opacity:1;fill:#d3a3ff;fill-opacity:1;stroke:none;stroke-width:0.0836484;stroke-linecap:round;stroke-linejoin:round;stroke-miterlimit:4;stroke-dasharray:none;stroke-opacity:1"
       id="rect1222"
       width="61.714531"
       height="5.5500827"
       x="1.2144642"
       y="58.654533" />
    <path
       id="rect1151"
       style="display:inline;opacity:1;fill:#9651bf;fill-opacity:1;stroke:none;stroke-width:3.99915;stroke-linecap:round;stroke-linejoin:round;stroke-miterlimit:4;stroke-dasharray:none;stroke-opacity:1"
       d="m 14.208821,11.853234 h 7.432806 l -2.230659,4.175381 h -2.971466 z"
       sodipodi:nodetypes="ccccc" />
    <path
       id="rect1151-0"
       style="display:inline;opacity:0.622513;fill:#ffffff;fill-opacity:1;stroke:none;stroke-width:3.99915;stroke-linecap:round;stroke-linejoin:round;stroke-miterlimit:4;stroke-dasharray:none;stroke-opacity:1"
       d="m 15.808582,11.853234 h 2.129714 l -0.05765,4.175381 h -0.702419 z"
       sodipodi:nodetypes="ccccc" />
    <rect
       style="display:inline;opacity:1;fill:#ffffff;fill-opacity:1;stroke:#9651bf;stroke-width:0.181199;stroke-linecap:round;stroke-linejoin:round;stroke-miterlimit:4;stroke-dasharray:none;stroke-opacity:1"
       id="rect1169"
       width="10.07769"
       height="11.192578"
       x="12.841018"
       y="0.59172606" />
    <rect
       style="display:inline;opacity:1;fill:#c793e6;fill-opacity:1;stroke:#d3b6e4;stroke-width:0.169298;stroke-linecap:round;stroke-linejoin:round;stroke-miterlimit:4;stroke-dasharray:none;stroke-opacity:1"
       id="rect1169-9"
       width="10.08959"
       height="5.2914395"
       x="12.835086"
       y="0.58578467" />
    <rect
       style="display:inline;opacity:1;fill:#c98bff;fill-opacity:1;stroke:#ab74cc;stroke-width:0.243025;stroke-linecap:round;stroke-linejoin:round;stroke-miterlimit:4;stroke-dasharray:none;stroke-opacity:1"
       id="rect1222-3"
       width="63.362389"
       height="1.0853789"
       x="0.32221752"
       y="-58.956032"
       transform="scale(1,-1)"
       ry="0.19505855"
       rx="0.088151" />
    <g
       id="g1474"
       transform="matrix(0.74748563,0,0,0.74748563,72.476542,69.704653)">
      <path
         class="fil0"
         d="m -42.256148,-39.849647 c 0.378136,-0.817401 2.039605,-2.122533 2.633758,-2.999615 0.453847,0.195457 4.737448,4.192299 5.247799,4.746044 0.84993,-0.365322 4.127152,-4.683919 5.026104,-5.167947 0.661849,0.819881 2.421498,1.995993 2.861877,2.778522 -0.230057,0.449275 -7.192341,8.037779 -7.651267,8.231551 -1.35925,-1.484205 -7.555012,-6.691339 -8.118271,-7.588555 z m 5.695288,-25.928569 2.327265,-0.09489 c 2.542541,0.04745 5.130578,0.586801 7.770751,1.634243 2.04558,0.812839 4.330339,2.390973 5.922308,3.858207 0.903258,0.832483 1.626017,1.604994 2.370139,2.571147 2.485188,3.22779 3.88413,6.896376 4.22168,10.698013 l 0.08022,1.96727 c -0.01865,2.698472 -0.562488,5.433323 -1.620783,8.100871 -1.219851,3.072134 -3.838376,6.298552 -6.429291,8.29394 -3.227788,2.485191 -6.896376,3.884132 -10.698013,4.221681 l -1.967269,0.08021 c -2.698475,-0.01865 -5.433323,-0.562485 -8.100872,-1.620783 -0.596208,-0.23753 -1.084776,-0.513864 -1.677447,-0.811388 -1.396107,-0.700169 -3.126942,-2.013614 -4.246357,-3.046755 -0.903256,-0.832484 -1.626016,-1.604996 -2.370138,-2.571148 -0.339671,-0.441004 -0.752076,-0.977796 -1.054157,-1.487665 -2.380565,-4.001123 -3.0504,-6.337862 -3.252732,-11.300104 -0.267075,-6.550104 3.960943,-14.007668 9.54118,-17.327918 3.003426,-1.786276 6.060169,-2.852046 9.181965,-3.166364 z m 9.140008,20.39058 c 0.154481,-0.357915 2.421028,-2.785955 2.782009,-3.069997 l 2.952389,2.686556 c -0.14741,0.457875 -2.268294,2.715389 -2.769144,3.091915 z m -10.092207,0.254399 c 0.691386,-0.6207 2.212813,-2.681707 2.911226,-2.946588 l 2.96065,2.705668 c -0.216165,0.716535 -2.14991,2.426277 -2.711377,3.150907 -0.480159,-0.143512 -2.975508,-2.446216 -3.160499,-2.909987 z m -7.177483,-2.496326 2.965374,2.711463 c -0.151553,0.356299 -2.425325,2.790618 -2.751977,3.035854 -0.503716,-0.317612 -2.802845,-2.394903 -2.980645,-2.829043 z m 2.032627,-2.183593 c 0.08149,-0.166412 7.009615,-7.968981 7.65264,-8.234597 1.28176,1.418536 7.598603,6.73295 8.112417,7.591787 -0.379995,0.808497 -2.034577,2.135793 -2.626168,3.002295 -0.935375,-0.409235 -4.553311,-4.446687 -5.430158,-4.741601 -0.463576,0.593457 -4.406066,4.925714 -4.843989,5.15753 -0.670293,-0.843478 -2.384489,-1.969074 -2.866235,-2.775354 z"
         id="path1907"
         style="clip-rule:evenodd;fill:#f3ba2f;fill-rule:evenodd;stroke-width:0.149499;image-rendering:optimizeQuality;shape-rendering:geometricPrecision;text-rendering:geometricPrecision" />
      <path
         class="fil1"
         d="m -42.256148,-39.849647 c 0.56332,0.898712 6.759021,6.10435 8.118271,7.588555 0.458926,-0.193772 7.42115,-7.783769 7.651267,-8.231551 -0.440379,-0.782529 -2.200028,-1.958641 -2.861877,-2.778522 -0.898952,0.484028 -4.176174,4.802625 -5.026104,5.167947 -0.510351,-0.553745 -4.792456,-4.550647 -5.247799,-4.746044 -0.595646,0.877143 -2.255622,2.182214 -2.633758,2.999615 z"
         id="path1909"
         style="clip-rule:evenodd;fill:#fefefe;fill-rule:evenodd;stroke-width:0.149499;image-rendering:optimizeQuality;shape-rendering:geometricPrecision;text-rendering:geometricPrecision" />
      <path
         class="fil1"
         d="m -42.659408,-49.813096 c 0.481683,0.804787 2.195942,1.931876 2.866235,2.775354 0.436428,-0.231756 4.380413,-4.564073 4.843989,-5.15753 0.876847,0.294914 4.494783,4.332366 5.430158,4.741601 0.591591,-0.866502 2.246173,-2.193798 2.626168,-3.002295 -0.513814,-0.858837 -6.830657,-6.173251 -8.112417,-7.591787 -0.643025,0.265616 -7.571148,8.068185 -7.65264,8.234597 z"
         id="path1911"
         style="clip-rule:evenodd;fill:#fefefe;fill-rule:evenodd;stroke-width:0.149499;image-rendering:optimizeQuality;shape-rendering:geometricPrecision;text-rendering:geometricPrecision" />
      <path
         class="fil1"
         d="m -37.514552,-45.133177 c 0.184991,0.463771 2.68034,2.766475 3.160499,2.909987 0.561466,-0.724627 2.49521,-2.434371 2.711377,-3.150904 l -2.96065,-2.705671 c -0.696861,0.266317 -2.219777,2.327383 -2.911226,2.946588 z"
         id="path1913"
         style="clip-rule:evenodd;fill:#fefefe;fill-rule:evenodd;stroke-width:0.149499;image-rendering:optimizeQuality;shape-rendering:geometricPrecision;text-rendering:geometricPrecision" />
      <path
         class="fil1"
         d="m -27.420852,-45.387636 2.965254,2.708474 c 0.50079,-0.378019 2.621669,-2.635533 2.769144,-3.091915 l -2.952389,-2.686556 c -0.360981,0.284042 -2.627528,2.712082 -2.782009,3.069997 z"
         id="path1915"
         style="clip-rule:evenodd;fill:#fefefe;fill-rule:evenodd;stroke-width:0.149499;image-rendering:optimizeQuality;shape-rendering:geometricPrecision;text-rendering:geometricPrecision" />
      <path
         class="fil1"
         d="m -47.459344,-44.712722 c 0.179292,0.43408 2.478421,2.511371 2.980643,2.829043 0.326653,-0.245236 2.600424,-2.679554 2.75198,-3.035854 l -2.965377,-2.711463 z"
         id="path1917"
         style="clip-rule:evenodd;fill:#fefefe;fill-rule:evenodd;stroke-width:0.149499;image-rendering:optimizeQuality;shape-rendering:geometricPrecision;text-rendering:geometricPrecision" />
    </g>
    <path
       id="rect1151-7"
       style="display:inline;opacity:1;fill:#9651bf;fill-opacity:1;stroke:none;stroke-width:3.99915;stroke-linecap:round;stroke-linejoin:round;stroke-miterlimit:4;stroke-dasharray:none;stroke-opacity:1"
       d="m 43.536105,11.853233 h 7.432806 l -2.230659,4.175382 h -2.971466 z"
       sodipodi:nodetypes="ccccc" />
    <path
       id="rect1151-0-5"
       style="display:inline;opacity:0.622513;fill:#ffffff;fill-opacity:1;stroke:none;stroke-width:3.99915;stroke-linecap:round;stroke-linejoin:round;stroke-miterlimit:4;stroke-dasharray:none;stroke-opacity:1"
       d="m 45.135866,11.853233 h 2.129714 l -0.05765,4.175382 h -0.702419 z"
       sodipodi:nodetypes="ccccc" />
    <rect
       style="display:inline;opacity:1;fill:#ffffff;fill-opacity:1;stroke:#9651bf;stroke-width:0.181199;stroke-linecap:round;stroke-linejoin:round;stroke-miterlimit:4;stroke-dasharray:none;stroke-opacity:1"
       id="rect1169-3"
       width="10.07769"
       height="11.192578"
       x="42.168301"
       y="0.59172547" />
    <rect
       style="display:inline;opacity:1;fill:#c793e6;fill-opacity:1;stroke:#d3b6e4;stroke-width:0.169298;stroke-linecap:round;stroke-linejoin:round;stroke-miterlimit:4;stroke-dasharray:none;stroke-opacity:1"
       id="rect1169-9-5"
       width="10.08959"
       height="5.2914395"
       x="42.162369"
       y="0.58578408" />
    <circle
       style="opacity:1;fill:#ffffff;fill-opacity:1;stroke:#1b314f;stroke-width:0.823543;stroke-linecap:round;stroke-linejoin:round;stroke-miterlimit:4;stroke-dasharray:none;stroke-opacity:1"
       id="path959"
       cx="17.053696"
       cy="36.387955"
       r="11.375861" />
    <g
       id="g1031"
       transform="matrix(0.04061181,0,0,0.04061181,0.54630436,23.073272)">
      <path
         class="st0"
         d="M 168.2,366.5 186.9,226 24.7,113.4 172.9,163.6 207.9,109.9 335.7,30.6 617.4,185.8 632,422.6 506.5,597 l -99.2,15.2 51.3,-93.9 v -90.4 l -37.3,-70.6 -37.9,-25.1 -58.3,60.1 v 63.6 l -45.5,42.6 -57.8,7 -25.6,14.5 -42,-13.4 -17.5,-63 31.5,-44.3 z"
         id="path981" />
      <path
         class="st1"
         d="m 427.2,112.2 c -30.9,-6.4 -64.7,-4.7 -64.7,-4.7 0,0 -11.1,51.3 -79.9,64.8 0.5,0 90.9,30.9 144.6,-60.1 z"
         id="path983" />
      <path
         class="st1"
         d="m 455.2,577.7 c 37.3,-29.2 65.3,-69.4 78.2,-114.9 0.6,-1.7 5.8,-4.7 9.3,-7 5.8,-3.5 11.7,-6.4 12.8,-11.1 2.3,-13.4 3.5,-27.4 3.5,-41.4 0,-5.2 -5.3,-10.5 -10.5,-15.7 -4.1,-3.5 -8.2,-7.6 -8.2,-10.5 C 534.5,324 510,274.4 470.9,238.3 l -4.1,4.1 c 37.9,35.6 62.4,84 67.7,135.3 0.6,4.7 5.2,9.3 9.9,14 4.1,3.5 8.8,8.8 8.8,11.1 0,13.4 -1.2,26.8 -3.5,40.2 -0.6,2.3 -5.8,4.7 -9.9,7 -5.8,2.9 -11.1,5.8 -12.2,10.5 -14,49.6 -46.1,92.8 -88.7,120.8 7.6,-16.3 31.5,-69.4 44.3,-96.3 l -2.3,-86.3 -74.1,-71.7 -42,5.8 -46.1,74.7 c 0,0 21.6,27.4 -8.8,59.5 -29.7,31.5 -53.1,38.5 -53.1,38.5 l -21.6,-11.7 c 6.4,-8.2 19.3,-20.4 29.2,-28.6 16.9,-14 33.8,-15.2 33.8,-30.3 C 298.9,403.3 265,412 265,412 l -12.3,11.7 -5.2,43.2 -25.6,32.1 -2.9,-0.6 -42,-9.3 c 0,0 25.7,-13.4 29.8,-28.6 4.1,-14.6 -8.2,-63 -8.8,-65.9 0.6,0.6 12.3,10.5 17.5,26.8 9.3,-25.7 21.6,-50.2 25.1,-52.5 3.5,-2.3 50.7,-27.4 50.7,-27.4 l -15.7,41.4 11.7,-6.4 28,-68.8 c 0,0 27.4,-13.4 47.8,-13.4 36.7,-0.6 91,-45.5 66.5,-126 7,2.9 128.3,63.6 149.3,182.6 15.7,91.5 -36.2,177.2 -123.7,226.8 z"
         id="path985" />
      <path
         class="st2"
         d="m 316.4,125 c 13.4,-15.8 8.2,-39.1 8.2,-39.1 l -39.1,57.8 c -0.6,0 13.9,0.6 30.9,-18.7 z"
         id="path987" />
      <path
         class="st2"
         d="m 185.1,440.6 4.7,-23.3 c 0,0 -19.3,33.8 -21,38.5 -1.8,5.3 1.2,14.6 8.7,14 7.6,-0.6 16.9,-11.7 16.9,-19.8 0,-10.5 -9.3,-9.4 -9.3,-9.4 z"
         id="path989" />
      <path
         class="st2"
         d="m 531.6,69.6 c 0,0 29.2,1.2 59.5,4.7 C 522.8,20.6 458.1,4.9 405.6,4.9 333.3,4.9 284.3,34.7 281.3,36.4 L 304.1,0.2 c 0,0 -91,-8.8 -123.1,87.5 -8.2,-20.4 -15.7,-50.2 -15.7,-50.2 0,0 -47.3,41.5 -25.1,110.3 C 85.9,128 8.4,100.5 5.4,100 c -4.1,-0.6 -5.3,1.2 -5.3,1.2 0,0 -1.2,1.7 2.3,4.7 6.5,5.1 129,95.6 155.9,113.1 -5.8,21 -5.8,30.9 0,40.8 8.2,13.4 8.7,20.4 7.6,30.3 -1.2,9.9 -11.7,95.7 -14,106.2 -2.3,10.5 -26.8,47.8 -25.7,58.9 1.2,11.1 16.3,58.3 29.8,63.6 9.9,3.5 34.4,11.1 50.7,11.1 5.8,0 11.1,-1.2 13.4,-3.5 9.9,-8.7 12.8,-10.5 19.8,-10.5 0.6,0 1.2,0 1.7,0 2.9,0 6.4,0.6 10.5,0.6 9.3,0 21.6,-1.8 30.3,-9.9 12.8,-12.8 35,-30.3 42,-38.5 8.8,-11.1 13.4,-26.2 11.1,-41.4 -1.8,-14 5.8,-26.3 14.6,-38.5 11.1,-14.6 31.5,-40.8 31.5,-40.8 40.3,30.2 65.4,76.3 65.4,127.6 0,91 -79.3,164.5 -177.3,164.5 -15.2,0 -29.7,-1.7 -44.3,-5.2 44.9,15.7 82.8,21 113.8,21 65.9,0 100.9,-23.9 100.9,-23.9 0,0 -12.2,15.8 -32.1,33.8 0.6,0 0.6,0 0.6,0 109.1,-15.2 162.2,-105 162.2,-105 0,0 -4.1,29.2 -9.3,49 145.1,-109.1 120.6,-245.6 120,-250.2 1.2,1.7 15.8,19.2 23.3,28.6 C 728.2,147.2 531.6,69.6 531.6,69.6 Z M 308.2,453.5 c -2.3,2.9 -12.2,11.7 -19.2,18.1 -7,6.4 -14.6,12.8 -20.4,18.7 -2.3,2.3 -7,3.5 -14,3.5 -2.3,0 -4.7,0 -6.4,0 -1.2,0 -2.3,0 -3.5,0 -1.2,0 -1.8,0 -2.3,0 -1.8,0 -3.5,0 -5.3,0 8.8,-11.7 34.4,-38.5 43.2,-44.3 10.5,-7 15.8,-14 9.3,-26.2 -6.4,-12.3 -23.3,-9.3 -23.3,-9.3 0,0 9.9,-4.1 18.7,-4.1 -11.1,-2.9 -25.1,0 -31.5,6.4 -7,6.4 -5.8,29.2 -8.7,43.7 -2.9,15.2 -12.8,22.8 -28,36.8 -8.2,7.6 -14,9.9 -18.7,9.9 -9.9,-1.7 -21.6,-4.7 -29.8,-7.6 -5.8,-7.6 -14.6,-32.7 -16.9,-43.2 1.7,-5.8 8.7,-18.1 12.2,-25.1 7,-13.4 11.1,-21 12.3,-28 2.3,-9.9 9.9,-71.2 12.8,-96.8 7.6,9.9 18.1,26.3 15.7,36.8 16.9,-23.9 4.7,-47.3 -1.2,-56.6 -5.2,-9.3 -12.2,-28 -6.4,-47.8 5.8,-19.8 26.8,-74.7 26.8,-74.7 0,0 7,12.3 16.9,9.9 9.9,-2.3 89.8,-122.5 89.8,-122.5 0,0 21.6,47.2 -1.2,81.7 -23.3,34.4 -46.1,40.8 -46.1,40.8 0,0 32.1,5.8 61.8,-15.8 12.2,28.6 23.9,58.3 24.5,62.4 -1.8,4.1 -25.1,60.1 -27.4,63.6 -1.2,1.2 -9.3,3.5 -15.2,4.7 -9.9,2.9 -15.7,4.7 -18.1,6.4 -4.1,3.5 -22.8,54.8 -31.5,79.9 -10.5,2.9 -21,8.8 -28.6,20.4 4.1,-2.9 16.9,-4.7 26.3,-5.8 8.2,-0.6 33.2,12.8 39.7,37.9 0,0.6 0,0.6 0,1.2 1.3,9.2 -1.6,18 -6.3,25 z m -54.8,7 c 5.3,-7.6 4.7,-20.4 5.3,-24.5 0.6,-4.1 1.7,-11.7 6.4,-12.8 4.7,-1.2 15.8,0.6 15.8,8.7 0,7.6 -8.2,9.3 -14,14.6 -4.2,4 -12.4,12.8 -13.5,14 z M 486.1,349 c 5.8,-29.7 6.4,-55.4 4.7,-76.4 22.7,30.3 36.7,67.1 40.8,105 0.6,4.7 5.2,9.3 9.9,14 4.1,3.5 8.8,8.2 8.8,11.1 0,13.4 -1.2,26.8 -3.5,40.3 -0.6,1.7 -5.8,4.7 -9.9,7 -5.8,2.9 -11.1,5.8 -12.2,10.5 -12.8,44.9 -40.3,84.6 -77,112.6 54.2,-56.6 80.4,-150 38.4,-224.1 z m -36.7,229.3 c 37.9,-29.2 67.1,-70 79.9,-116.1 0.6,-1.7 5.8,-4.7 9.3,-7 5.8,-2.9 11.7,-6.4 12.8,-11.1 2.3,-13.4 3.5,-27.4 3.5,-41.4 0,-5.2 -5.3,-10.5 -10.5,-15.7 -2.9,-3.5 -7.6,-7.6 -7.6,-10.5 -4.7,-42.6 -21.6,-82.8 -47.8,-116.1 -11.7,-70 -58.3,-91.6 -59.5,-92.2 1.2,1.8 31.5,45.5 10.5,96.8 -21.6,51.9 -77,43.8 -81.7,44.3 -4.7,0 -22.7,23.3 -45.5,66.5 -2.9,-1.2 -15.2,-4.1 -29.2,-1.7 10.5,-29.2 26.3,-70.6 29.2,-74.1 1.2,-1.2 9.9,-3.5 15.8,-5.2 11.1,-2.9 16.3,-4.7 18.1,-7 1.2,-1.8 7,-15.2 12.8,-29.2 5.3,0 18.7,-1.2 19.8,-1.8 1.2,-1.2 12.3,-29.7 12.3,-33.2 0,-2.9 -22.8,-59.5 -31.5,-81.1 4.1,-4.7 8.2,-10.5 12.2,-16.9 119.6,12.9 213,114.4 213,237.4 0,94.5 -55.4,176.8 -135.9,215.3 z"
         id="path991" />
      <path
         class="st2"
         d="m 294.2,263.3 c 11.1,-12.8 5.3,-36.7 -15.2,-40.8 5.3,-12.2 12.8,-36.7 12.8,-36.7 0,0 -59.5,93.3 -64.7,95.1 -5.3,1.8 -10.5,-18.7 -10.5,-18.7 -11.1,42.6 18.7,48.4 22.2,35 16.3,-4.2 44.3,-21.7 55.4,-33.9 z"
         id="path993" />
      <path
         class="st3"
         d="m 243.4,286 30.3,-51.9 c 0,0 17.5,8.8 8.7,22.8 -11,16.3 -39,29.1 -39,29.1 z"
         id="path995" />
      <path
         class="st4"
         d="m 618.5,526.4 c -8.8,11.7 -18.7,23.9 -30.3,35.6 75.2,-144.7 3.5,-277.1 0.6,-282.3 5.3,5.3 10.5,11.1 15.2,16.3 57.7,64.1 64.7,160.4 14.5,230.4 z"
         id="path997" />
      <path
         class="st4"
         d="M 688.5,340.3 C 662.2,269.7 624.9,209.6 542.7,155.4 463.4,102.9 378.2,107 373.5,107.6 c -0.6,0 -1.2,0 -1.2,0 2.9,-1.2 5.8,-1.8 8.7,-2.3 18.1,-5.8 41.4,-10.5 64.8,-13.4 61.9,-8.9 124.3,12.1 166.9,57.1 0.6,0.6 0.6,0.6 1.2,1.2 48.4,51.3 73.5,115.4 74.6,190.1 z"
         id="path999" />
      <path
         class="st4"
         d="m 524,51.5 c -86.9,-16.3 -142.9,-8.2 -183.2,7 -1.2,-4.7 -5.3,-14 -8.8,-21.6 -12.1,14.6 -25,32.1 -33.1,43.2 -22.2,15.2 -31.5,29.8 -31.5,29.8 12.8,-43.8 50.2,-76.4 95.7,-84.6 12.8,-2.3 26.8,-3.5 42,-3.5 40.2,0.6 80.4,10.5 118.9,29.7 z"
         id="path1001" />
      <path
         class="st4"
         d="m 202.6,163.5 c -68.2,-2.3 -45.5,-81.7 -44.3,-86.3 0,0.6 4.6,62.4 44.3,86.3 z"
         id="path1003" />
      <path
         class="st4"
         d="m 269.7,20.6 c -52.5,31.5 -42,106.7 -42,106.7 C 177.5,51 265.6,22.4 269.7,20.6 Z"
         id="path1005" />
      <path
         class="st0"
         d="m 183.4,184.5 c 3.5,2.9 7,8.2 2.9,15.8 -2.3,4.1 -5.8,3.5 -11.1,1.2 -7,-3.5 -49,-28 -86.9,-53.1 43.2,15.2 86.9,31.5 93.9,35 0,0 0.6,0.6 1.2,1.1 z"
         id="path1007" />
    </g>
  </g>
  <style
     type="text/css"
     id="style855">
	.st0{fill:#0033AD;}
</style>
  <style
     type="text/css"
     id="style979">
	.st0{fill:#FFFFFF;}
	.st1{fill:#94A6C3;}
	.st2{fill:#1B314F;}
	.st3{fill:#FFD923;}
	.st4{fill:#D82122;}
</style>
</svg>
