<?xml version="1.0" encoding="UTF-8"?>
<svg width="128mm" height="128mm" version="1.1" viewBox="0 0 128 128" xmlns="http://www.w3.org/2000/svg" xmlns:cc="http://creativecommons.org/ns#" xmlns:dc="http://purl.org/dc/elements/1.1/" xmlns:rdf="http://www.w3.org/1999/02/22-rdf-syntax-ns#" xmlns:xlink="http://www.w3.org/1999/xlink">
 <defs>
  <radialGradient id="radialGradient2179" cx="253.12" cy="-94.575" r="77.981" gradientTransform="matrix(.095844 -.098656 .66162 .64276 -112.6 124.51)" gradientUnits="userSpaceOnUse">
   <stop stop-color="#fff" offset="0"/>
   <stop stop-color="#fff" stop-opacity="0" offset="1"/>
  </radialGradient>
 </defs>
 <metadata>
  <rdf:RDF>
   <cc:Work rdf:about="">
    <dc:format>image/svg+xml</dc:format>
    <dc:type rdf:resource="http://purl.org/dc/dcmitype/StillImage"/>
    <dc:title/>
   </cc:Work>
  </rdf:RDF>
 </metadata>
 <g transform="translate(270.4 -10.322)">
  <rect x="-262.6" y="23.628" width="114.49" height="100.22" rx="16.584" ry="16.584" fill="#fdf"/>
  <g transform="matrix(.64906 0 0 .64906 -80.191 -55.929)">
   <path d="m-202.72 140.97c-8.5338 3e-3 -17.009 1.8575-25.073 5.5537-3.049 1.3974-4.7779 2.3692-8.2238 4.6421 9.6858 11.326 13.665 12.063 25.951 9.4072 4.5944-0.9684 15.728-0.47099 17.752 0.79323 0.93272 0.58249 0.63483 1.6953-0.95084 3.5528-0.80037 0.93756-1.4552 1.8605-1.4552 2.051 0 0.19053 0.20836 0.58917 0.46302 0.88626 0.37332 0.43552 2.1032 0.88134 8.9297 2.3006 4.6567 0.96818 9.5382 1.9834 10.848 2.2557s4.4053 0.92481 6.8792 1.4506c1.0874 0.2311 1.9552 0.41437 2.7321 0.57619l3.6029-5.9784c-0.45178-1.4332-0.96179-3.0263-1.5518-4.8152-1.6514-5.0067-3.8359-11.664-4.8545-14.793-2.549-7.8319-2.4734-7.6708-3.606-7.6708-0.50952 0-1.0215 0.16123-1.1379 0.35863-0.11637 0.19739-0.82903 1.0606-1.5834 1.9182s-1.5878 1.8057-1.8521 2.1068c-0.84386 0.96146-1.2958 0.93339-4.3822-0.27337-7.3806-2.8858-14.957-4.3245-22.486-4.3217zm25.079 83.291c-0.34513 0-1.8768 1.4138-3.189 2.944-1.1305 1.3185-4.5444 5.1461-5.9841 6.7092-0.67208 0.72966-1.6239 1.8033-2.1151 2.3854-0.49119 0.58208-1.4396 1.6536-2.1079 2.3812-1.7693 1.9264-4.0683 4.4767-6.3293 7.0223-1.0914 1.2288-2.3713 2.6399-2.8443 3.1362-0.47294 0.49632-0.85989 1.1177-0.85989 1.3808 0 0.78573 0.96381 1.4453 2.5797 1.7653 0.83691 0.16573 2.6524 0.5476 4.0349 0.84904 1.3824 0.30143 3.9423 0.83808 5.6885 1.1922 1.7462 0.35409 4.8419 0.99971 6.8792 1.435 12.02 2.5685 14.686 3.0584 15.128 2.7802 1.0022-0.63183 1.0033-1.0213 0.0134-3.9879-0.89719-2.689-1.0915-3.4963-1.0165-4.2292 0.0168-0.16372 1.0128-1.0551 2.2133-1.9808 1.5712-1.2114 5.3045-4.7325 7.613-7.1122l-11.32-15.953c-0.9122 1.2391-1.8947 2.4347-2.9569 3.5812-1.5893 1.7154-2.5648 1.2854-3.452-1.5214-0.55972-1.7708-1.2757-2.7781-1.9746-2.7781zm-79.628 0.44804c2.1938 5.1501 5.051 9.9492 8.4465 14.104 1.9734 2.4147 6.0267 6.5228 8.0646 8.1737 0.94588 0.7662 1.953 1.5824 2.2376 1.8133 1.8611 1.5103 6.8521 4.5919 9.5364 5.888 4.4839 2.1652 5.9257 2.7457 9.4857 3.8215 9.2269 2.7882 18.978 3.2691 28.955 1.4278 3.2883-0.60686 4.3692-1.1634 3.8659-1.9916-0.28574-0.47021-5.0156-1.6431-11.615-2.8804-3.7408-0.70133-5.2522-1.762-5.6043-3.9321-0.32604-2.0091-0.0116-2.6289 3.3032-6.5066 1.3074-1.5295 1.3737-1.6728 0.9772-2.111-0.35485-0.39208-0.89451-0.47292-3.2546-0.48782-7.3773-0.0466-14.48-2.1829-20.608-5.902-5.1154 5.4545-9.4811 9.944-10.148 10.226-3.5318-3.8565-15.813-14.445-23.642-21.643zm79.636 0.1018c0.30823 0.0127 0.37075 0.0752 0.15968 0.15968-0.19099 0.0764-0.41904 0.0672-0.50694-0.0207s0.0684-0.15051 0.34726-0.13901zm0.81494 0.60307c0.0541 3e-3 0.1 0.0814 0.15916 0.23564 0.0821 0.21389-0.0154 0.37517-0.22737 0.37517-0.20441 0-0.36994-0.0101-0.36794-0.0222s0.10485-0.18054 0.22789-0.37465c0.0921-0.14524 0.15417-0.21718 0.20826-0.21394zm-76.011 6.7846c0.0549 0 0.26331 0.20835 0.46303 0.46302 0.32911 0.41965 0.3194 0.42885-0.10026 0.0997-0.44072-0.34564-0.58053-0.56276-0.36277-0.56276zm11.012 12.965c0.14552 0 0.26459 0.12598 0.26459 0.28008 0 0.15407-0.11907 0.20669-0.26459 0.11679s-0.26458-0.2164-0.26458-0.2806 0.11906-0.11627 0.26458-0.11627zm76.2 2.1167c0.0137 0.0137-0.0659 0.12091-0.23048 0.33073-0.19971 0.25466-0.40812 0.46302-0.46302 0.46302-0.21776 0-0.078-0.21763 0.36277-0.56327 0.20983-0.16455 0.31708-0.24413 0.33073-0.23048zm-33.45 1.1632c0.0706-0.0108 0.11265 0.0213 0.11265 0.0987 0 0.14777-0.17859 0.33736-0.39687 0.42117-0.21828 0.0837-0.39688 0.11085-0.39688 0.0605 0-0.0504 0.1786-0.23949 0.39688-0.42065 0.11437-0.0949 0.21359-0.14888 0.28422-0.15968z" fill="#850085" stroke-width=".26458"/>
   <g transform="matrix(.22265 0 0 .22265 -172.74 156.75)">
    <polygon transform="translate(0 -13.194)" points="127.96 287.96 255.92 212.32 127.96 0 125.17 9.5 125.17 285.17" fill="#4d004d"/>
    <polygon transform="translate(0 -13.194)" points="127.96 154.16 127.96 0 0 212.32 127.96 287.96" fill="#c200c2"/>
    <polygon transform="translate(0 -13.194)" points="127.96 416.91 256 236.59 127.96 312.19 126.39 314.11 126.39 412.31" fill="#4d004d"/>
    <polygon transform="translate(0 -13.194)" points="127.96 312.19 0 236.59 127.96 416.91" fill="#c200c2"/>
    <polygon transform="translate(0 -13.194)" points="255.92 212.32 127.96 154.16 127.96 287.96" fill="#850085"/>
    <polygon transform="translate(0 -13.194)" points="127.96 287.96 127.96 154.16 9e-4 212.32" fill="#850085"/>
   </g>
   <g clip-rule="evenodd" fill="#850085" fill-rule="evenodd" shape-rendering="geometricPrecision" stroke="#850085" stroke-width="3.5156">
    <path class="fil1" d="m-257.82 213.9c1.6543 2.6392 19.849 17.926 23.841 22.285 1.3477-0.56904 21.793-22.858 22.469-24.173-1.2933-2.298-6.4608-5.7519-8.4044-8.1596-2.6399 1.4214-12.264 14.104-14.76 15.177-1.4987-1.6262-14.074-13.364-15.411-13.938-1.7492 2.5759-6.624 6.4084-7.7345 8.8089z" image-rendering="optimizeQuality"/>
    <path class="fil1" d="m-259.46 184.01s6.9073 6.304 8.8757 8.781c2.527-2.8964 12.864-13.403 14.225-15.146 1.9324 1.9262 11.515 10.27 15.947 13.925 1.7373-2.5446 5.5848-6.461 7.7122-8.8168-3.0443-2.6518-20.059-18.129-23.824-22.295-8.2094 7.7504-16.663 17.742-22.936 23.552z" image-rendering="optimizeQuality"/>
    <path class="fil1" d="m-243.89 198.38c0.54325 1.3619 7.8713 8.1242 9.2814 8.5457 1.6488-2.128 7.3276-7.149 7.9624-9.2532l-8.6945-7.9457c-2.0464 0.78208-6.5188 6.8348-8.5493 8.6532z" image-rendering="optimizeQuality"/>
    <path class="fil1" d="m-214.25 197.63 8.708 7.9539c1.4706-1.1101 7.699-7.7397 8.1321-9.0799l-8.6702-7.8896c-1.0601 0.83415-7.7162 7.9645-8.1698 9.0156z" image-rendering="optimizeQuality"/>
    <path class="fil1" d="m-273.1 199.62c0.52653 1.2748 7.2783 7.3751 8.7532 8.308 0.95929-0.72018 7.6366-7.869 8.0817-8.9153l-8.7083-7.9627z" image-rendering="optimizeQuality"/>
   </g>
  </g>
  <rect x="-262.6" y="23.628" width="114.49" height="100.22" rx="16.584" ry="16.584" fill="url(#radialGradient2179)"/>
  <g>
   <path d="m-261.62 31.212s52.974-1.0429 73.368 19.675c20.395 20.718 17.733 73.064 17.733 73.064l15.117-0.94588 7.6479-10.038-0.52051-79.596-6.358-9.9497-65.651-1.9416-33.416 2.6105z" fill="#fafafa" fill-opacity=".60012" stroke="#fdfdfd" stroke-opacity=".40326" stroke-width="1.0836"/>
   <rect x="-262.6" y="23.628" width="114.49" height="100.22" rx="16.584" ry="16.584" fill="none" stroke="#850085" stroke-width="5.7197"/>
   <rect x="-262.6" y="23.628" width="114.49" height="100.22" rx="16.584" ry="16.584" fill="none" stroke="#850085" stroke-width="5.7197"/>
  </g>
 </g>
</svg>
