<?xml version="1.0" encoding="UTF-8"?>
<svg width="128mm" height="128mm" version="1.1" viewBox="0 0 128 128" xmlns="http://www.w3.org/2000/svg" xmlns:cc="http://creativecommons.org/ns#" xmlns:dc="http://purl.org/dc/elements/1.1/" xmlns:rdf="http://www.w3.org/1999/02/22-rdf-syntax-ns#">
 <defs>
  <radialGradient id="radialGradient959-5-8-5" cx="253.12" cy="-94.575" r="77.981" gradientTransform="matrix(.099304 -.10222 .68551 .66597 160.68 116.89)" gradientUnits="userSpaceOnUse">
   <stop stop-color="#fff" offset="0"/>
   <stop stop-color="#fff" stop-opacity="0" offset="1"/>
  </radialGradient>
  <filter id="filter1219-12" x="-.0068182" y="-.02375" width="1.0136" height="1.0475" color-interpolation-filters="sRGB">
   <feGaussianBlur stdDeviation="0.76903152"/>
  </filter>
  <filter id="filter1219-1-0" x="-.0068182" y="-.02375" width="1.0136" height="1.0475" color-interpolation-filters="sRGB">
   <feGaussianBlur stdDeviation="0.76903152"/>
  </filter>
  <filter id="filter1219-1-2-3" x="-.0068182" y="-.02375" width="1.0136" height="1.0475" color-interpolation-filters="sRGB">
   <feGaussianBlur stdDeviation="0.76903152"/>
  </filter>
  <linearGradient id="linearGradient1409" x1="43.399" x2="24.003" y1="6.3542" y2="17.19" gradientTransform="matrix(1.331 0 0 1.331 21.586 16.196)" gradientUnits="userSpaceOnUse">
   <stop stop-color="#fff" stop-opacity=".50089" offset="0"/>
   <stop stop-color="#f9f6fb" stop-opacity=".54118" offset=".11117"/>
   <stop stop-color="#f8f4fa" stop-opacity=".87076" offset=".14399"/>
   <stop stop-color="#f6f1f9" stop-opacity=".56471" offset=".17456"/>
   <stop stop-color="#f0e6f5" stop-opacity=".63164" offset=".34017"/>
   <stop stop-color="#d3b6e4" stop-opacity="0" offset="1"/>
  </linearGradient>
 </defs>
 <metadata>
  <rdf:RDF>
   <cc:Work rdf:about="">
    <dc:format>image/svg+xml</dc:format>
    <dc:type rdf:resource="http://purl.org/dc/dcmitype/StillImage"/>
    <dc:title/>
   </cc:Work>
  </rdf:RDF>
 </metadata>
 <rect x="5.26" y="12.364" width="118.62" height="103.83" rx="17.183" ry="17.183" fill="#fdf"/>
 <g transform="matrix(.80889 0 0 .80889 -72.35 .076)">
  <rect x="133.89" y="36.971" width="71.929" height="91.441" fill="#f6f9e4" stroke="#d3b6e4" stroke-linecap="round" stroke-linejoin="round" stroke-width="2.4946"/>
  <rect x="146.94" y="52.209" width="45.71" height="75.182" ry="1.3951" fill="#e9e0ee" stroke="#c793e6" stroke-linecap="round" stroke-linejoin="round" stroke-width="1.044"/>
  <rect x="150.03" y="54.476" width="43.088" height="74.688" ry="1.3951" fill="#dfd2e6"/>
 </g>
 <rect x="46.508" y="42.307" width="36.974" height="60.814" ry="1.1285" fill="none" stroke="#c793e6" stroke-linecap="round" stroke-linejoin="round" stroke-width=".84448"/>
 <g transform="matrix(.80889 0 0 .80889 -72.35 .076)">
  <rect x="133.76" y="23.312" width="72.184" height="14.983" fill="#e9e0ee" stroke="#d3b6e4" stroke-linecap="round" stroke-linejoin="round" stroke-width="2.4424"/>
  <rect x="118.13" y="123.91" width="101.55" height="9.1327" fill="#d3a3ff"/>
  <g stroke-linecap="round" stroke-linejoin="round">
   <rect transform="scale(1,-1)" x="116.67" y="-124.41" width="104.26" height="1.786" rx=".14505" ry=".32097" fill="#c98bff" stroke="#ab74cc" stroke-width=".3999"/>
   <ellipse cx="170.15" cy="47.325" rx="28.648" ry="27.361" fill="#fdfcfe" stroke-width="5.6668"/>
   <circle cx="170.15" cy="48.449" r="27.118" fill="#b484d0" stroke-width="5.4888"/>
   <ellipse cx="170.15" cy="48.71" rx="27.118" ry="24.24" fill="#d3b6e4" stroke-width="5.1894"/>
  </g>
  <path d="m166.48 75.006h6.9752l-2.0933 3.9183h-2.7885z" fill="#9651bf"/>
  <path d="m167.98 75.006h1.9986l-0.0541 3.9183h-0.65918z" fill="#fff" opacity=".62251"/>
  <rect x="160.16" y="69.35" width="19.227" height="5.5745" fill="#dfd2e6" stroke="#b484d0" stroke-linecap="round" stroke-linejoin="round" stroke-width=".44593"/>
  <rect x="168.16" y="78.864" width="3.5159" height="1.4519" rx=".23948" ry=".23948" fill="#f1e8f7" stroke="#9651bf" stroke-linecap="round" stroke-linejoin="round" stroke-width=".17231"/>
 </g>
 <g transform="matrix(.63158 0 0 .63158 57.242 71.34)">
  <g transform="matrix(.078698 .00029314 -.0068769 .078118 25.99 7.8096)" fill="#fefefe" filter="url(#filter1219-12)" stroke-width="2.4743" aria-label="Ice Cream">
   <path d="m-118.8-227.31q0-4.115 0.68583-10.091 0.7838-5.9765 1.9595-12.541 1.2737-6.5644 2.7433-13.031 1.5676-6.4664 3.1352-11.561 1.5676-5.1927 2.9393-8.4259 1.4696-3.2332 2.5474-3.2332 0.68583 0 2.1555 0.48987 1.4696 0.39191 2.8413 0.97976t2.4494 1.2737q1.0777 0.68583 1.0777 1.2737 0 0.29393-0.19595 0.48988-0.3919 0.48987-0.68583 0.88178-0.29393 0.29392-0.48988 0.7838-1.4696 2.6453-3.0372 7.1522-1.5676 4.4089-3.0372 9.8955-1.4696 5.3886-2.8413 11.267-1.3716 5.8785-2.4494 11.267-0.97976 5.2907-1.5676 9.6016t-0.58785 6.6623q0 1.1757-1.1757 1.1757-0.88178 0-2.0575-0.3919-1.0777-0.3919-2.0575-0.97975-0.97976-0.58786-1.6656-1.3717-0.68583-0.7838-0.68583-1.5676z"/>
   <path d="m-91.27-223q-5.8785 0-8.9158-2.9393-2.9393-2.9393-3.6251-7.2502-0.68583-4.4089 0.48988-9.5036 1.1757-5.1927 3.5271-9.5036 2.4494-4.4089 5.5846-7.3482 3.2332-2.9393 6.5644-2.9393 1.7636 0 3.4291 0.7838 1.6656 0.68583 2.9393 1.8615 1.3717 1.1757 2.1555 2.7433 0.88178 1.4696 0.88178 3.0372 0 1.9595-0.48988 4.017-0.48988 1.9595-1.2737 3.5271-0.68583 1.5676-1.5676 2.5474-0.88178 0.97975-1.7636 0.97975-1.0777 0-2.7433-0.97975-1.6656-0.97976-2.6453-2.0575-0.48988-0.58785-0.29393-1.1757 0.29393-0.68583 1.0777-1.1757 1.4696-0.88178 2.6453-2.3514 1.2737-1.5676 1.8615-3.2332 0.7838-1.9595 0.48988-2.9393-0.29393-0.97975-1.2737-0.97975-2.0575 0-4.115 2.2534t-3.7231 5.5846q-1.5676 3.3312-2.5474 7.3482-0.97975 3.919-0.88178 7.2502 0.09798 3.3312 1.3717 5.5846 1.3717 2.2534 4.4089 2.2534 3.2332 0 5.9765-2.6453 2.8413-2.6453 5.0947-6.4664 2.3514-3.919 4.115-8.2299 1.8615-4.3109 3.2332-7.6421 0.29393-0.58785 0.7838-0.68583 0.48988-0.19595 0.88178 0 0.48988 0.19595 0.7838 0.68583 0.29393 0.48988 0 1.0777-1.3717 3.4291-3.4291 8.3279-2.0575 4.8988-4.8008 9.4056t-6.2704 7.6421q-3.5271 3.1352-7.936 3.1352z"/>
   <path d="m-64.915-223q-4.4089 0-7.2502-1.6656-2.7433-1.7636-4.115-4.5069t-1.5676-6.2704q-0.19595-3.6251 0.58785-7.2502 0.88178-3.7231 2.4494-7.2502 1.5676-3.6251 3.7231-6.3684t4.6048-4.4089q2.5474-1.7636 5.1927-1.7636 1.3717 0 3.1352 0.88177 1.8615 0.78381 3.4291 2.1555 1.5676 1.3717 2.6453 3.0372 1.0777 1.6656 1.0777 3.2332 0 3.4291-1.7636 6.3684t-4.5069 5.1927q-2.7433 2.1555-5.9765 3.4291-3.1352 1.1757-5.9765 1.1757-0.19595 3.919 1.0777 6.6623 1.3717 2.7433 4.8008 2.7433 2.9393 0 5.6826-2.6453 2.8413-2.6453 5.1927-6.4664 2.4494-3.919 4.3109-8.2299 1.9595-4.3109 3.2332-7.6421 0.19595-0.58785 0.68583-0.68583 0.58785-0.19595 0.97975 0 0.48988 0.19595 0.7838 0.68583t0 1.0777q-1.3717 3.6251-3.5271 8.5239-2.0575 4.8988-4.8988 9.4056-2.8413 4.4089-6.3684 7.5441-3.5271 3.0372-7.6421 3.0372zm3.919-33.606q-1.4696 1.0777-2.8413 3.0372-1.2737 1.8615-2.3514 4.2129t-1.8615 4.9967q-0.68583 2.6453-0.97975 5.0947 1.9595 0 3.919-1.3717 2.0575-1.3717 3.6251-3.5271 1.6656-2.2534 2.6453-5.0947 0.97975-2.8413 0.97975-5.7805 0-1.5676-1.0777-1.9595-0.97975-0.48988-2.0575 0.3919z"/>
   <path d="m-3.6802-286.39q4.115 0 7.1522 1.6656 3.1352 1.5676 4.3109 4.7028 1.0777 0.88178 1.6656 2.1555 0.68583 1.1757 0.68583 2.2534 0 2.6453-1.5676 5.4866t-3.4291 5.6826-3.4291 5.6826-1.5676 5.4866q0 0.68583-0.48988 0.68583-0.88178 0-2.0575-0.3919-1.0777-0.48988-2.0575-1.2737-0.88178-0.7838-1.5676-1.7636-0.68583-1.0777-0.68583-2.2534 0-2.6453 1.5676-4.8988 1.5676-2.3514 3.3312-4.5069 1.8615-2.1555 3.4291-4.2129 1.5676-2.1555 1.5676-4.4089 0-1.6656-0.88178-3.1352-0.7838-1.4696-2.9393-1.4696-4.8008 0-9.2097 3.919-4.3109 3.919-7.7401 9.7975-3.3312 5.8785-5.3886 12.737-1.9595 6.8583-2.0575 12.737 0 5.8785 2.3514 9.7975t7.6421 3.919q1.8615 0 3.919-0.48988 2.1555-0.58785 3.7231-1.6656 0.48988-0.3919 0.7838 0.29392 0.29393 0.39191-0.097975 1.4696-1.0777 3.1352-3.919 4.4089-2.8413 1.1757-5.8785 1.1757-6.2704 0-10.287-2.7433-3.919-2.7433-5.8785-7.1522-1.9595-4.5069-2.1555-10.189-0.19595-5.7806 1.1757-11.659 1.4696-5.9765 4.2129-11.659 2.7433-5.7806 6.6623-10.189 3.919-4.5069 8.7198-7.2502 4.8988-2.7433 10.385-2.7433z"/>
   <path d="m1.3162-227.71q0.29393-3.821 1.0777-8.132 0.7838-4.4089 1.8615-8.7198 1.0777-4.4089 2.3514-8.5239 1.3717-4.2129 2.9393-7.74 0.48988-1.2737 1.3717-1.2737 0.68583 0 1.5676 0.29392 0.97975 0.29393 1.8615 0.78381 0.97975 0.3919 1.6656 0.88178 0.7838 0.48987 1.2737 0.88177 0.7838 0.58786 0.29393 1.4696-0.48988 0.78381-0.7838 1.5676-1.3717 3.5271-2.6453 7.5441-1.1757 4.017-2.1555 8.034 1.2737-2.8413 2.8413-5.8785 1.6656-3.0372 3.4291-5.8785 1.7636-2.8413 3.5271-5.1927 1.8615-2.3514 3.6251-3.821 0.68583-0.68582 1.8615-0.68582 0.3919 0 1.1757 0.19595t1.6656 0.58785q0.97975 0.29393 1.7636 0.7838 0.88178 0.39191 1.4696 0.97976 0.97975 0.97975 0.58785 1.7636-0.3919 0.68583-1.1757 1.2737-2.5474 2.1555-3.821 5.3886-1.1757 3.2332-1.3717 5.7806-0.09797 1.8615 0.48988 2.7433 0.58785 0.78381 1.3717 0.78381 1.5676 0 3.0372-1.2737t2.7433-3.0372q1.2737-1.7636 2.3514-3.6251t1.7636-3.0372q0.3919-0.58785 0.88178-0.58785 0.58785-0.098 0.97975 0.19595 0.48988 0.29392 0.58785 0.7838 0.19595 0.48988-0.09798 1.0777-0.7838 1.3717-1.9595 3.3312-1.1757 1.8615-2.6453 3.821-1.3717 1.8615-3.0372 3.5271-1.5676 1.5676-3.3312 2.1555-1.2737 0.48988-2.9393 0.19595-1.5676-0.29393-3.1352-1.0777-1.4696-0.88178-2.6453-2.1555-1.0777-1.3716-1.2737-3.0372-0.19595-2.2534 0.68583-5.1927 0.88178-3.0372 1.9595-5.2907 0.29393-0.68583 0.09797-0.58786-0.09797 0-0.3919 0.39191-2.3514 2.8413-4.8988 7.2502-2.4494 4.3109-4.5069 8.8178t-3.4291 8.6218q-1.3717 4.115-1.5676 6.4664 0 0.78381-0.3919 0.97976-0.29393 0.098-0.7838 0.098-0.88178 0-1.9595-0.3919-1.0777-0.48988-2.0575-1.1757-0.88178-0.68583-1.5676-1.4696-0.58785-0.88178-0.58785-1.6656z"/>
   <path d="m46.189-223q-4.4089 0-7.2502-1.6656-2.7433-1.7636-4.115-4.5069t-1.5676-6.2704q-0.19595-3.6251 0.58785-7.2502 0.88178-3.7231 2.4494-7.2502 1.5676-3.6251 3.7231-6.3684t4.6048-4.4089q2.5474-1.7636 5.1927-1.7636 1.3717 0 3.1352 0.88177 1.8615 0.78381 3.4291 2.1555 1.5676 1.3717 2.6453 3.0372 1.0777 1.6656 1.0777 3.2332 0 3.4291-1.7636 6.3684t-4.5069 5.1927q-2.7433 2.1555-5.9765 3.4291-3.1352 1.1757-5.9765 1.1757-0.19595 3.919 1.0777 6.6623 1.3717 2.7433 4.8008 2.7433 2.9393 0 5.6826-2.6453 2.8413-2.6453 5.1927-6.4664 2.4494-3.919 4.3109-8.2299 1.9595-4.3109 3.2332-7.6421 0.19595-0.58785 0.68583-0.68583 0.58785-0.19595 0.97975 0 0.48988 0.19595 0.7838 0.68583 0.29393 0.48988 0 1.0777-1.3717 3.6251-3.5271 8.5239-2.0575 4.8988-4.8988 9.4056-2.8413 4.4089-6.3684 7.5441-3.5271 3.0372-7.6421 3.0372zm3.919-33.606q-1.4696 1.0777-2.8413 3.0372-1.2737 1.8615-2.3514 4.2129t-1.8615 4.9967q-0.68583 2.6453-0.97976 5.0947 1.9595 0 3.919-1.3717 2.0575-1.3717 3.6251-3.5271 1.6656-2.2534 2.6453-5.0947 0.97975-2.8413 0.97975-5.7805 0-1.5676-1.0777-1.9595-0.97975-0.48988-2.0575 0.3919z"/>
   <path d="m77.541-229.67q0.19595-0.97976 0.19595-1.8615 0.09798-0.88178 0.29393-1.8615 0.09798-0.19595 0.09798-0.68583-2.1555 4.5069-4.8988 7.838-2.7433 3.2332-6.0745 3.2332-2.9393 0-4.6048-1.6656-1.5676-1.7636-1.8615-4.4089-0.48988-4.017 0.19595-8.9158 0.7838-4.8988 2.6453-9.5036 1.8615-4.7028 4.6048-8.5239 2.8413-3.919 6.4664-5.8785 1.1757-0.68583 2.3514-0.58785 1.2737 0 2.5474 0.48987 1.2737 0.3919 2.5474 1.0777t2.6453 1.3717q0.19595-0.19595 0.29393-0.58785 0.09798-0.39191 0.19595-0.68583 0.58785-1.2737 1.4696-1.2737 0.68583 0 1.5676 0.29392 0.97975 0.29393 1.8615 0.78381 0.88178 0.3919 1.5676 0.88178 0.7838 0.48987 1.2737 0.88177 0.7838 0.58786 0.29393 1.4696-0.48988 0.78381-0.7838 1.5676-1.1757 3.2332-2.2534 6.8583t-1.9595 7.2502q-0.88178 3.6251-1.5676 7.0542-0.68583 3.3312-1.1757 5.9765-0.19595 1.0777 0.29393 1.1757t1.0777-0.48987q2.2534-2.2534 4.115-5.2907 1.9595-3.1352 3.5271-6.4664t2.7433-6.5644q1.2737-3.2332 2.2534-5.7806 0.29393-0.58786 0.7838-0.78381 0.48988-0.19595 0.97975 0 0.48988 0.19595 0.68583 0.68583 0.29393 0.48988 0.098 1.0777-0.68583 1.6656-1.7636 4.4089-0.97975 2.7433-2.4494 5.9765-1.4696 3.1352-3.2332 6.3684-1.6656 3.2332-3.6251 5.8785-1.8615 2.5474-3.919 4.2129-2.0575 1.6656-4.115 1.6656-1.2737 0-2.3514-0.58785-0.97975-0.58785-1.7636-1.5676-0.68583-0.97975-1.0777-2.1555-0.29393-1.1757-0.19595-2.3514zm-7.5441 1.5676q1.1757 0 2.4494-1.5676 1.2737-1.6656 2.5474-4.115 1.3717-2.5474 2.5474-5.5846 1.1757-3.1352 2.1555-5.9765 1.0777-2.9393 1.7636-5.2907 0.7838-2.3514 1.1757-3.5271 0.19595-0.68582 0.3919-1.2737 0.29393-0.68582 0.58785-1.2737-0.7838-1.2737-2.3514-1.2737-2.5474 0-4.8008 2.7433-2.1555 2.7433-3.821 6.7603-1.6656 3.919-2.7433 8.3279-0.97975 4.3109-1.1757 7.4461 0 0.3919-0.09798 1.1757 0 0.78381 0.09798 1.5676 0.09798 0.68583 0.3919 1.2737 0.29393 0.58785 0.88178 0.58785z"/>
   <path d="m93.315-227.71q0.29393-3.821 1.0777-8.132 0.7838-4.4089 1.8615-8.7198 1.0777-4.4089 2.3514-8.5239 1.3717-4.2129 2.9393-7.74 0.48987-1.2737 1.3716-1.2737 1.4696 0 3.4291 1.0777 1.9595 0.97975 2.9393 1.7636 0.78381 0.58786 0.29393 1.4696-0.48988 0.78381-0.7838 1.5676-1.3717 3.5271-2.6453 7.5441-1.1757 4.017-2.1555 8.034 1.2737-2.8413 2.8413-5.8785 1.6656-3.0372 3.4291-5.8785 1.7636-2.8413 3.5271-5.1927 1.8615-2.3514 3.6251-3.821 0.68583-0.68582 1.8615-0.68582 0.3919 0 1.2737 0.19595t1.7636 0.58785q0.97975 0.3919 1.7636 0.88178 0.88178 0.3919 1.3716 0.97975 0.48988 0.58786 0.39191 1.0777-0.098 0.3919-0.29393 0.97976-1.6656 4.115-2.9393 8.3279t-2.3514 8.4259q1.2737-2.8413 2.8413-5.8785 1.6656-3.0372 3.4291-5.8785 1.7636-2.8413 3.5271-5.1927 1.8615-2.3514 3.6251-3.821 0.7838-0.68582 1.8615-0.68582 0.58785 0 1.6656 0.29392 1.0777 0.29393 2.1555 0.88178 1.1757 0.48988 1.9595 1.1757 0.88178 0.58785 0.88178 1.2737 0 0.29392-0.098 0.58785-0.098 0.19595-0.19595 0.48988-0.3919 0.58785-0.68583 1.1757-0.19595 0.58785-0.3919 1.2737-1.1757 3.1352-2.2534 6.6623-1.0777 3.4291-1.9595 6.8583t-1.6656 6.6623q-0.68583 3.1352-1.0777 5.6826-0.19595 1.0777 0.19595 1.2737 0.48988 0.19595 1.2737-0.58785 2.1555-2.2534 4.115-5.2907 1.9595-3.1352 3.5271-6.4664 1.6656-3.3312 2.9393-6.5644 1.3717-3.2332 2.3514-5.7806 0.29393-0.58786 0.78381-0.78381 0.48987-0.19595 0.97975 0t0.7838 0.68583q0.29393 0.48988 0 1.0777-0.68582 1.6656-1.7636 4.4089t-2.5474 5.9765q-1.4696 3.1352-3.2332 6.3684t-3.7231 5.8785q-1.9595 2.5474-4.115 4.2129-2.0575 1.6656-4.115 1.6656-2.5474 0-4.2129-1.5676-1.6656-1.6656-1.4696-3.6251 0.39191-3.1352 0.97976-6.7603 0.68583-3.6251 1.5676-7.3482 0.88178-3.7231 1.8615-7.2502 1.0777-3.6251 2.1555-6.7603-1.5676 1.7636-3.3312 4.4089-1.7636 2.5474-3.4291 5.5846-1.6656 3.0372-3.1352 6.2704t-2.6453 6.2704q-1.0777 2.9393-1.8615 5.4866-0.68583 2.5474-0.7838 4.2129-0.098 0.78381-0.48988 0.97976-0.29392 0.098-0.7838 0.098-0.88178 0-1.9595-0.3919-1.0777-0.48988-2.0575-1.1757-0.88178-0.68583-1.5676-1.4696-0.58785-0.88178-0.58785-1.6656 0.58785-6.5644 2.2534-14.206 1.7636-7.6421 4.2129-14.304-2.4494 2.6453-5.0947 7.1522-2.6453 4.4089-4.8988 9.1117-2.1555 4.7028-3.7231 9.1117-1.4696 4.3109-1.6656 6.7603 0 0.78381-0.39191 0.97976-0.29392 0.098-0.7838 0.098-0.88178 0-1.9595-0.3919-1.0777-0.48988-2.0575-1.1757-0.88178-0.68583-1.5676-1.4696-0.58785-0.88178-0.58785-1.6656z"/>
  </g>
  <g transform="matrix(.10345 .00038536 -.0090403 .10269 -40.123 -11.504)" fill="#b484d0" stroke-width="1.8822" aria-label="Ice Cream">
   <path d="m563.72 11.353q0-3.1302 0.5217-7.6766 0.59624-4.5463 1.4906-9.5398 0.96888-4.9935 2.0868-9.9125 1.1925-4.919 2.385-8.7945 1.1925-3.9501 2.2359-6.4096 1.118-2.4595 1.9378-2.4595 0.52171 0 1.6397 0.37265 1.1179 0.29812 2.1614 0.7453 1.0434 0.44718 1.8632 0.96889t0.81983 0.96889q0 0.22359-0.14906 0.37265-0.29812 0.37265-0.52171 0.67077-0.22359 0.22359-0.37265 0.59624-1.1179 2.0123-2.3104 5.4407-1.1925 3.3538-2.3104 7.5275-1.118 4.0991-2.1614 8.5709t-1.8632 8.5709q-0.7453 4.0246-1.1925 7.3039-0.44718 3.2793-0.44718 5.068 0 0.89436-0.89435 0.89436-0.67077 0-1.5651-0.29812-0.81982-0.29812-1.5651-0.7453t-1.267-1.0434q-0.5217-0.59624-0.5217-1.1925z"/>
   <path d="m584.66 14.632q-4.4718 0-6.7822-2.2359-2.2359-2.2359-2.7576-5.5152-0.52171-3.3538 0.37265-7.2294 0.89436-3.9501 2.6831-7.2294 1.8632-3.3538 4.2482-5.5897 2.4595-2.2359 4.9935-2.2359 1.3415 0 2.6085 0.59624 1.267 0.52171 2.2359 1.4161 1.0434 0.89436 1.6397 2.0868 0.67076 1.1179 0.67076 2.3104 0 1.4906-0.37265 3.0557-0.37264 1.4906-0.96888 2.6831-0.52171 1.1925-1.1925 1.9378-0.67076 0.7453-1.3415 0.7453-0.81983 0-2.0868-0.7453-1.267-0.7453-2.0123-1.5651-0.37264-0.44718-0.22358-0.89436 0.22358-0.52171 0.81982-0.89436 1.118-0.67077 2.0123-1.7887 0.96889-1.1925 1.4161-2.4595 0.59624-1.4906 0.37265-2.2359t-0.96889-0.7453q-1.5651 0-3.1302 1.7142t-2.8321 4.2482q-1.1925 2.534-1.9378 5.5897-0.74529 2.9812-0.67077 5.5152 0.0745 2.534 1.0434 4.2482 1.0434 1.7142 3.3538 1.7142 2.4595 0 4.5463-2.0123 2.1614-2.0123 3.8755-4.919 1.7887-2.9812 3.1302-6.2605 1.4161-3.2793 2.4595-5.8133 0.22359-0.44718 0.59624-0.52171 0.37265-0.14906 0.67077 0 0.37264 0.14906 0.59623 0.52171t0 0.81983q-1.0434 2.6085-2.6085 6.335t-3.652 7.1549-4.7699 5.8133q-2.6831 2.385-6.0369 2.385z"/>
   <path d="m604.71 14.632q-3.3538 0-5.5152-1.267-2.0868-1.3415-3.1302-3.4284-1.0434-2.0868-1.1925-4.7699-0.14906-2.7576 0.44718-5.5152 0.67077-2.8321 1.8632-5.5152 1.1925-2.7576 2.8321-4.8444 1.6397-2.0868 3.5029-3.3538 1.9378-1.3415 3.9501-1.3415 1.0434 0 2.385 0.67077 1.4161 0.59624 2.6085 1.6397 1.1925 1.0434 2.0123 2.3104 0.81982 1.267 0.81982 2.4595 0 2.6085-1.3415 4.8444t-3.4284 3.9501q-2.0868 1.6397-4.5463 2.6085-2.385 0.89436-4.5463 0.89436-0.14906 2.9812 0.81982 5.068 1.0434 2.0868 3.652 2.0868 2.2359 0 4.3227-2.0123 2.1614-2.0123 3.9501-4.919 1.8632-2.9812 3.2793-6.2605 1.4906-3.2793 2.4595-5.8133 0.14906-0.44718 0.52171-0.52171 0.44718-0.14906 0.7453 0 0.37265 0.14906 0.59624 0.52171t0 0.81983q-1.0434 2.7576-2.6831 6.4841-1.5651 3.7265-3.7265 7.1549-2.1614 3.3538-4.8444 5.7388-2.6831 2.3104-5.8133 2.3104zm2.9812-25.564q-1.1179 0.81983-2.1614 2.3104-0.96888 1.4161-1.7887 3.2048t-1.4161 3.801q-0.5217 2.0123-0.74529 3.8755 1.4906 0 2.9812-1.0434 1.5651-1.0434 2.7576-2.6831 1.267-1.7142 2.0123-3.8755 0.74529-2.1614 0.74529-4.3973 0-1.1925-0.81982-1.4906-0.7453-0.37265-1.5651 0.29812z"/>
   <path d="m651.29-33.588q3.1302 0 5.4407 1.267 2.385 1.1925 3.2793 3.5774 0.81983 0.67077 1.267 1.6397 0.5217 0.89436 0.5217 1.7142 0 2.0123-1.1925 4.1737t-2.6085 4.3227q-1.4161 2.1614-2.6085 4.3227t-1.1925 4.1737q0 0.52171-0.37264 0.52171-0.67077 0-1.5651-0.29812-0.81982-0.37265-1.5651-0.96889-0.67077-0.59624-1.1925-1.3415-0.5217-0.81983-0.5217-1.7142 0-2.0123 1.1925-3.7265 1.1925-1.7887 2.534-3.4284 1.4161-1.6397 2.6085-3.2048 1.1925-1.6397 1.1925-3.3538 0-1.267-0.67077-2.385-0.59624-1.1179-2.2359-1.1179-3.652 0-7.0058 2.9812-3.2793 2.9812-5.8878 7.453-2.534 4.4718-4.0991 9.6889-1.4906 5.2171-1.5651 9.6889 0 4.4718 1.7887 7.453t5.8133 2.9812q1.4161 0 2.9812-0.37265 1.6396-0.44718 2.8321-1.267 0.37265-0.29812 0.59624 0.22359 0.22358 0.29812-0.0745 1.1179-0.81983 2.385-2.9812 3.3538-2.1614 0.89436-4.4718 0.89436-4.7699 0-7.8256-2.0868-2.9812-2.0868-4.4718-5.4407-1.4906-3.4284-1.6396-7.7511-0.14906-4.3973 0.89436-8.869 1.1179-4.5463 3.2048-8.869 2.0868-4.3973 5.068-7.7511 2.9812-3.4284 6.6332-5.5152 3.7265-2.0868 7.9002-2.0868z"/>
   <path d="m655.09 11.055q0.22359-2.9067 0.81983-6.186 0.59623-3.3538 1.4161-6.6331 0.81983-3.3538 1.7887-6.4841 1.0434-3.2048 2.2359-5.8878 0.37265-0.96889 1.0434-0.96889 0.52171 0 1.1925 0.22359 0.74529 0.22359 1.4161 0.59624 0.7453 0.29812 1.267 0.67077 0.59624 0.37265 0.96889 0.67077 0.59624 0.44718 0.22359 1.1179-0.37265 0.59624-0.59624 1.1925-1.0434 2.6831-2.0123 5.7388-0.89436 3.0557-1.6396 6.1114 0.96888-2.1614 2.1614-4.4718 1.267-2.3104 2.6085-4.4718t2.6831-3.9501q1.4161-1.7887 2.7576-2.9067 0.5217-0.52171 1.4161-0.52171 0.29812 0 0.89436 0.14906 0.59623 0.14906 1.267 0.44718 0.7453 0.22359 1.3415 0.59624 0.67076 0.29812 1.1179 0.7453 0.7453 0.7453 0.44718 1.3415-0.29812 0.52171-0.89436 0.96889-1.9378 1.6397-2.9066 4.0991-0.89436 2.4595-1.0434 4.3973-0.0745 1.4161 0.37265 2.0868 0.44718 0.59624 1.0434 0.59624 1.1925 0 2.3104-0.96889 1.118-0.96889 2.0868-2.3104 0.96888-1.3415 1.7887-2.7576t1.3415-2.3104q0.29812-0.44718 0.67077-0.44718 0.44718-0.07453 0.7453 0.14906 0.37265 0.22359 0.44718 0.59624 0.14906 0.37265-0.0745 0.81983-0.59624 1.0434-1.4906 2.534-0.89435 1.4161-2.0123 2.9067-1.0434 1.4161-2.3104 2.6831-1.1925 1.1925-2.534 1.6397-0.96889 0.37265-2.2359 0.14906-1.1925-0.22359-2.385-0.81983-1.118-0.67077-2.0123-1.6397-0.81983-1.0434-0.96889-2.3104-0.14906-1.7142 0.52171-3.9501 0.67077-2.3104 1.4906-4.0246 0.22359-0.52171 0.0745-0.44718-0.0745 0-0.29812 0.29812-1.7887 2.1614-3.7265 5.5152-1.8632 3.2793-3.4284 6.7077-1.5651 3.4284-2.6085 6.5586t-1.1925 4.919q0 0.59624-0.29812 0.7453-0.22359 0.07453-0.59624 0.07453-0.67077 0-1.4906-0.29812-0.81983-0.37265-1.5651-0.89436-0.67076-0.52171-1.1925-1.1179-0.44718-0.67077-0.44718-1.267z"/>
   <path d="m689.23 14.632q-3.3538 0-5.5152-1.267-2.0868-1.3415-3.1302-3.4284-1.0434-2.0868-1.1925-4.7699-0.14906-2.7576 0.44718-5.5152 0.67076-2.8321 1.8632-5.5152 1.1925-2.7576 2.8321-4.8444t3.5029-3.3538q1.9378-1.3415 3.9501-1.3415 1.0434 0 2.385 0.67077 1.4161 0.59624 2.6085 1.6397 1.1925 1.0434 2.0123 2.3104 0.81983 1.267 0.81983 2.4595 0 2.6085-1.3415 4.8444t-3.4284 3.9501q-2.0868 1.6397-4.5463 2.6085-2.385 0.89436-4.5463 0.89436-0.14906 2.9812 0.81983 5.068 1.0434 2.0868 3.652 2.0868 2.2359 0 4.3227-2.0123 2.1614-2.0123 3.9501-4.919 1.8632-2.9812 3.2793-6.2605 1.4906-3.2793 2.4595-5.8133 0.14906-0.44718 0.52171-0.52171 0.44717-0.14906 0.74529 0 0.37265 0.14906 0.59624 0.52171t0 0.81983q-1.0434 2.7576-2.6831 6.4841-1.5651 3.7265-3.7265 7.1549-2.1614 3.3538-4.8444 5.7388-2.6831 2.3104-5.8133 2.3104zm2.9812-25.564q-1.118 0.81983-2.1614 2.3104-0.96889 1.4161-1.7887 3.2048-0.81982 1.7887-1.4161 3.801-0.52171 2.0123-0.7453 3.8755 1.4906 0 2.9812-1.0434 1.5651-1.0434 2.7576-2.6831 1.267-1.7142 2.0123-3.8755t0.7453-4.3973q0-1.1925-0.81983-1.4906-0.7453-0.37265-1.5651 0.29812z"/>
   <path d="m713.08 9.5645q0.14905-0.7453 0.14905-1.4161 0.0745-0.67077 0.22359-1.4161 0.0745-0.14906 0.0745-0.52171-1.6396 3.4284-3.7265 5.9624-2.0868 2.4595-4.6208 2.4595-2.2359 0-3.5029-1.267-1.1925-1.3415-1.4161-3.3538-0.37265-3.0557 0.14906-6.7822 0.59623-3.7265 2.0123-7.2294 1.4161-3.5774 3.5029-6.4841 2.1614-2.9812 4.919-4.4718 0.89436-0.52171 1.7887-0.44718 0.96888 0 1.9378 0.37265 0.96889 0.29812 1.9378 0.81983 0.96889 0.52171 2.0123 1.0434 0.14906-0.14906 0.22359-0.44718 0.0745-0.29812 0.14906-0.52171 0.44718-0.96889 1.118-0.96889 0.52171 0 1.1925 0.22359 0.7453 0.22359 1.4161 0.59624 0.67076 0.29812 1.1925 0.67077 0.59624 0.37265 0.96889 0.67077 0.59624 0.44718 0.22359 1.1179-0.37265 0.59624-0.59624 1.1925-0.89436 2.4595-1.7142 5.2171-0.81983 2.7576-1.4906 5.5152-0.67076 2.7576-1.1925 5.3661-0.52171 2.534-0.89436 4.5463-0.14906 0.81983 0.22359 0.89436t0.81983-0.37265q1.7142-1.7142 3.1302-4.0246 1.4906-2.385 2.6831-4.919t2.0868-4.9935q0.96888-2.4595 1.7142-4.3973 0.22359-0.44718 0.59624-0.59624 0.37264-0.14906 0.74529 0t0.52171 0.52171q0.22359 0.37265 0.0745 0.81983-0.52171 1.267-1.3415 3.3538-0.7453 2.0868-1.8632 4.5463-1.1179 2.385-2.4595 4.8444-1.267 2.4595-2.7576 4.4718-1.4161 1.9378-2.9812 3.2048t-3.1302 1.267q-0.96889 0-1.7887-0.44718-0.7453-0.44718-1.3415-1.1925-0.52171-0.7453-0.81983-1.6397-0.22358-0.89436-0.14905-1.7887zm-5.7388 1.1925q0.89435 0 1.8632-1.1925 0.96889-1.267 1.9378-3.1302 1.0434-1.9378 1.9378-4.2482 0.89435-2.385 1.6396-4.5463 0.81983-2.2359 1.3415-4.0246 0.59624-1.7887 0.89436-2.6831 0.14906-0.52171 0.29812-0.96889 0.22359-0.52171 0.44718-0.96889-0.59624-0.96889-1.7887-0.96889-1.9378 0-3.652 2.0868-1.6396 2.0868-2.9067 5.1425-1.267 2.9812-2.0868 6.335-0.7453 3.2793-0.89436 5.6643 0 0.29812-0.0745 0.89436 0 0.59624 0.0745 1.1925 0.0745 0.52171 0.29812 0.96889 0.22359 0.44718 0.67077 0.44718z"/>
   <path d="m725.08 11.055q0.22359-2.9067 0.81983-6.186 0.59624-3.3538 1.4161-6.6331 0.81982-3.3538 1.7887-6.4841 1.0434-3.2048 2.2359-5.8878 0.37265-0.96889 1.0434-0.96889 1.118 0 2.6085 0.81983 1.4906 0.7453 2.2359 1.3415 0.59623 0.44718 0.22358 1.1179-0.37264 0.59624-0.59623 1.1925-1.0434 2.6831-2.0123 5.7388-0.89436 3.0557-1.6397 6.1114 0.96889-2.1614 2.1614-4.4718 1.267-2.3104 2.6085-4.4718t2.6831-3.9501q1.4161-1.7887 2.7576-2.9067 0.52171-0.52171 1.4161-0.52171 0.29811 0 0.96888 0.14906t1.3415 0.44718q0.74529 0.29812 1.3415 0.67077 0.67077 0.29812 1.0434 0.7453 0.37264 0.44718 0.29812 0.81983-0.0745 0.29812-0.22359 0.7453-1.267 3.1302-2.2359 6.335-0.96888 3.2048-1.7887 6.4096 0.96889-2.1614 2.1614-4.4718 1.267-2.3104 2.6085-4.4718t2.6831-3.9501q1.4161-1.7887 2.7576-2.9067 0.59624-0.52171 1.4161-0.52171 0.44717 0 1.267 0.22359t1.6396 0.67077q0.89436 0.37265 1.4906 0.89436 0.67077 0.44718 0.67077 0.96889 0 0.22359-0.0745 0.44718-0.0745 0.14906-0.14906 0.37265-0.29812 0.44718-0.52171 0.89436-0.14906 0.44718-0.29812 0.96889-0.89436 2.385-1.7142 5.068-0.81983 2.6085-1.4906 5.2171-0.67077 2.6085-1.267 5.068-0.52171 2.385-0.81983 4.3227-0.14906 0.81983 0.14906 0.96889 0.37265 0.14906 0.96889-0.44718 1.6396-1.7142 3.1302-4.0246 1.4906-2.385 2.6831-4.919 1.267-2.534 2.2359-4.9935 1.0434-2.4595 1.7887-4.3973 0.22359-0.44718 0.59623-0.59624 0.37265-0.14906 0.7453 0t0.59624 0.52171 0 0.81983q-0.52171 1.267-1.3415 3.3538-0.81982 2.0868-1.9378 4.5463-1.1179 2.385-2.4595 4.8444-1.3415 2.4595-2.8321 4.4718-1.4906 1.9378-3.1302 3.2048-1.5651 1.267-3.1302 1.267-1.9378 0-3.2048-1.1925-1.267-1.267-1.1179-2.7576 0.29811-2.385 0.74529-5.1425 0.52171-2.7576 1.1925-5.5897 0.67077-2.8321 1.4161-5.5152 0.81983-2.7576 1.6397-5.1425-1.1925 1.3415-2.534 3.3538-1.3415 1.9378-2.6085 4.2482t-2.385 4.7699-2.0123 4.7699q-0.81982 2.2359-1.4161 4.1737-0.52171 1.9378-0.59624 3.2048-0.0745 0.59624-0.37265 0.7453-0.22359 0.07453-0.59623 0.07453-0.67077 0-1.4906-0.29812-0.81982-0.37265-1.5651-0.89436-0.67077-0.52171-1.1925-1.1179-0.44718-0.67077-0.44718-1.267 0.44718-4.9935 1.7142-10.807 1.3415-5.8133 3.2048-10.881-1.8632 2.0123-3.8755 5.4407-2.0123 3.3538-3.7265 6.9313-1.6397 3.5774-2.8321 6.9313-1.118 3.2793-1.267 5.1425 0 0.59624-0.29812 0.7453-0.22359 0.07453-0.59623 0.07453-0.67077 0-1.4906-0.29812-0.81983-0.37265-1.5651-0.89436-0.67077-0.52171-1.1925-1.1179-0.44718-0.67077-0.44718-1.267z"/>
  </g>
 </g>
 <g transform="matrix(.037734 -.0002101 -.0029491 .037486 72.409 81.313)" fill="#b484d0" filter="url(#filter1219-1-0)" stroke-width="2.4743" aria-label="Swap">
  <path d="m22.381-252.4q-0.88178 0-2.0575-0.3919-1.0777-0.48988-2.0575-1.2737t-1.6656-1.7636q-0.68583-1.0777-0.68583-2.1555 0-2.6453 1.5676-4.9967t3.3312-4.5069q1.8615-2.1555 3.4291-4.2129 1.5676-2.1555 1.5676-4.4089 0-1.6656-0.88178-3.0372-0.7838-1.4696-2.9393-1.4696-2.7433 0-5.8785 1.7636t-5.7805 4.6048q-2.6453 2.7433-4.4089 6.1724-1.6656 3.3312-1.6656 6.5644 0 3.1352 1.6656 5.0947 1.6656 1.8615 4.115 3.2332 2.4494 1.2737 5.1927 2.2534 2.7433 0.88178 4.8988 1.9595 3.7231 1.8615 5.8785 4.9968 2.2534 3.1352 1.3717 7.5441-0.88178 4.115-3.4291 7.2502-2.5474 3.1352-5.9765 5.2907t-7.4461 3.1352q-4.017 1.0777-7.936 1.0777-3.2332 0-6.1725-1.0777-2.9393-0.97976-5.0947-2.8413-2.0575-1.9595-3.0372-4.8008-0.97975-2.8413-0.19595-6.3684 0.7838-3.4291 2.8413-6.1724 0.3919-0.58785 0.97975-1.2737 0.68583-0.68582 1.4696-1.3716 0.7838-0.68583 1.6656-1.0777 0.88178-0.48988 1.6656-0.48988 0.97975 0 2.0575 0.58785 1.1757 0.48988 2.1555 1.3717 0.97975 0.7838 1.6656 1.7636 0.7838 0.97975 1.0777 1.8615 0.097975 0.48988 0.097975 0.97975 0 0.48988-0.58785 0.48988-1.4696 0-3.0372 0.7838-1.5676 0.68583-2.8413 1.8615-1.2737 1.1757-2.1555 2.6453-0.7838 1.4696-0.7838 3.0372 0 1.3717 0.68583 2.2534 0.68583 0.88178 1.6656 1.3717 1.0777 0.48988 2.2534 0.7838 1.2737 0.19595 2.3514 0.19595 2.1555 0 4.8988-0.68582 2.8413-0.68583 5.2907-2.0575 2.5474-1.3716 4.2129-3.3312 1.7636-2.0575 1.7636-4.8008 0-3.5271-3.821-6.0745-2.9393-1.8615-6.1725-3.2332-3.2332-1.4696-6.0745-3.1352-2.7433-1.7636-4.8008-4.3109-1.9595-2.5474-2.5474-6.6623-0.58785-4.7028 1.2737-9.4056 1.8615-4.8008 5.3886-8.6218 3.6251-3.919 8.3279-6.2704 4.8008-2.4494 9.9935-2.4494 4.115 0 7.1522 1.6656 3.0372 1.5676 4.3109 4.7028 1.0777 0.88178 1.6656 2.1555 0.58785 1.1757 0.58785 2.2534 0 2.6453-1.5676 5.4866t-3.4291 5.6826q-1.7636 2.8413-3.3312 5.6826t-1.5676 5.4866q0 0.68583-0.48988 0.68583z"/>
  <path d="m72.152-261.51q1.8615 1.0777 2.5474 3.0372 0.7838 1.9595 0.19595 3.4291-1.1757 2.7433-2.7433 5.9765-1.4696 3.2332-3.3312 6.6623 1.1757 0.68583 2.7433 0.3919 2.3514-0.48987 4.6048-2.9393 2.2534-2.5474 5.0947-7.74 0.29393-0.58786 0.7838-0.68583 0.58785-0.098 0.97975 0.19595 0.48988 0.19595 0.68583 0.68583 0.19595 0.48987-0.09798 1.0777-3.1352 5.7805-5.9765 8.7198-2.7433 2.8413-5.5846 3.3312-2.7433 0.48988-4.6048-0.68583-2.2534 4.115-4.7028 7.936t-4.7028 6.6623q-0.7838 0.88178-1.7636 1.6656t-2.1555 0.7838q-0.88178 0-1.9595-0.29392-1.0777-0.29393-2.1555-0.78381-1.0777-0.58785-1.9595-1.1757-0.88178-0.68583-1.3717-1.3717-0.68583-0.88178-0.7838-2.3514 0-1.5676 0.19595-3.0372-1.4696 2.8413-3.3312 5.5846-1.7636 2.6453-3.4291 3.4291-1.1757 0-2.5474-0.3919-1.3717-0.48988-2.6453-1.1757-1.1757-0.78381-2.0575-1.7636-0.7838-1.0777-0.7838-2.2534 0-3.821 0.19595-7.936 0.29393-4.213 0.7838-8.4259t1.1757-8.2299q0.7838-4.017 1.7636-7.5441 0.48988-1.4696 1.6656-1.4696 1.4696 0 3.3312 0.68583 1.9595 0.58785 2.9393 1.2737 0.7838 0.48988 0.3919 1.4696-0.29393 0.88178-0.48988 1.5676-0.7838 2.8413-1.6656 6.5644-0.7838 3.6251-1.5676 7.4461-0.68583 3.7231-1.1757 7.3482-0.48988 3.6251-0.58785 6.2704 0 1.0777 0.29393 1.4696 0.3919 0.29393 1.1757-0.48988 1.8615-1.6656 3.7231-5.5846 1.8615-4.017 4.115-9.0137 0.88178-4.7028 1.9595-9.2097 1.1757-4.5069 2.2534-8.3279 0.48988-1.4696 1.6656-1.4696 1.4696 0 3.3312 0.68583 1.9595 0.58785 2.9393 1.2737 0.7838 0.48988 0.3919 1.4696-0.29393 0.88178-0.48988 1.5676-1.0777 2.9393-2.2534 6.7603-1.0777 3.821-2.0575 7.7401-0.88178 3.821-1.6656 7.4461-0.68583 3.6251-0.7838 6.2704 0 1.4696 0.88178 0.29393 1.2737-1.7636 2.6453-4.2129 1.4696-2.4494 2.8413-4.9968 1.4696-2.6453 2.6453-5.1927 1.2737-2.6453 2.3514-4.7028 0.19595-2.6453 1.2737-5.9765 1.1757-3.4291 3.7231-7.2502 0.48988-0.78381 1.3717-0.88178 0.97975-0.098 1.7636 0.3919z"/>
  <path d="m92.041-229.67q0.19595-0.97976 0.19595-1.8615 0.09798-0.88178 0.29393-1.8615 0.09798-0.19595 0.09798-0.68583-2.1555 4.5069-4.8988 7.838-2.7433 3.2332-6.0745 3.2332-2.9393 0-4.6048-1.6656-1.5676-1.7636-1.8615-4.4089-0.48988-4.017 0.19595-8.9158 0.7838-4.8988 2.6453-9.5036 1.8615-4.7028 4.6048-8.5239 2.8413-3.919 6.4664-5.8785 1.1757-0.68583 2.3514-0.58785 1.2737 0 2.5474 0.48987 1.2737 0.3919 2.5474 1.0777 1.2737 0.68583 2.6453 1.3717 0.19595-0.19595 0.29393-0.58785 0.09798-0.39191 0.19595-0.68583 0.58785-1.2737 1.4696-1.2737 0.68582 0 1.5676 0.29392 0.97975 0.29393 1.8615 0.78381 0.88178 0.3919 1.5676 0.88178 0.7838 0.48987 1.2737 0.88177 0.7838 0.58786 0.29392 1.4696-0.48987 0.78381-0.7838 1.5676-1.1757 3.2332-2.2534 6.8583t-1.9595 7.2502q-0.88179 3.6251-1.5676 7.0542-0.68583 3.3312-1.1757 5.9765-0.19595 1.0777 0.29393 1.1757t1.0777-0.48987q2.2534-2.2534 4.115-5.2907 1.9595-3.1352 3.5271-6.4664t2.7433-6.5644q1.2737-3.2332 2.2534-5.7806 0.29392-0.58786 0.7838-0.78381t0.97976 0q0.48987 0.19595 0.68583 0.68583 0.29393 0.48988 0.098 1.0777-0.68583 1.6656-1.7636 4.4089-0.97975 2.7433-2.4494 5.9765-1.4696 3.1352-3.2332 6.3684-1.6656 3.2332-3.6251 5.8785-1.8615 2.5474-3.919 4.2129-2.0575 1.6656-4.115 1.6656-1.2737 0-2.3514-0.58785-0.97975-0.58785-1.7636-1.5676-0.68583-0.97975-1.0777-2.1555-0.29393-1.1757-0.19595-2.3514zm-7.5441 1.5676q1.1757 0 2.4494-1.5676 1.2737-1.6656 2.5474-4.115 1.3717-2.5474 2.5474-5.5846 1.1757-3.1352 2.1555-5.9765 1.0777-2.9393 1.7636-5.2907 0.7838-2.3514 1.1757-3.5271 0.19595-0.68582 0.3919-1.2737 0.29393-0.68582 0.58785-1.2737-0.7838-1.2737-2.3514-1.2737-2.5474 0-4.8008 2.7433-2.1555 2.7433-3.821 6.7603-1.6656 3.919-2.7433 8.3279-0.97975 4.3109-1.1757 7.4461 0 0.3919-0.09798 1.1757 0 0.78381 0.09798 1.5676 0.09797 0.68583 0.3919 1.2737 0.29393 0.58785 0.88178 0.58785z"/>
  <path d="m105.37-203.9q0-4.115 0.58786-10.189 0.58785-5.9765 1.6656-12.541 0.97975-6.5644 2.2534-13.031 1.2737-6.4664 2.5474-11.561 1.3717-5.1927 2.6453-8.4259t2.3514-3.2332q0.68583 0 2.1555 0.48988 1.4696 0.3919 2.8413 0.97975 1.3717 0.58786 2.4494 1.3717 1.0777 0.68583 1.0777 1.2737 0 0.098-0.19595 0.48988-0.29393 0.3919-0.68583 0.7838-0.29393 0.29393-0.48988 0.7838-0.88178 1.5676-1.7636 3.7231-0.7838 2.0575-1.5676 4.7028 1.4696-2.7433 3.1352-5.2907 1.6656-2.6453 3.4291-5.0947 1.4696-1.9595 3.1352-3.2332 1.6656-1.3717 3.3312-1.3717 1.5676 0 3.0372 0.88178t2.5474 2.1555q1.0777 1.2737 1.7636 2.8413 0.68583 1.4696 0.68583 2.6453 0 4.115-1.6656 8.7198-1.6656 4.5069-3.919 8.8178 3.4291-2.5474 6.4664-6.2704 3.0372-3.821 5.1927-9.1117 0.29392-0.58785 0.7838-0.68583 0.48988-0.19595 0.97975 0 0.48988 0.19595 0.68583 0.68583 0.29393 0.48988 0.098 1.0777-2.5474 6.3684-7.0542 11.365-4.5069 4.9967-10.581 8.2299-2.8413 3.919-6.0745 6.4664-3.1352 2.4494-5.6826 2.4494-1.9595 0-3.4291-0.48987-1.3717-0.58786-2.1555-1.3717-0.68583 3.821-1.2737 7.4461-0.48988 3.6251-0.88178 6.7603-0.3919 3.2332-0.58785 5.7806-0.19596 2.5474-0.19596 4.115 0 1.1757-1.1757 1.1757-0.88178 0-2.0575-0.3919-1.0777-0.3919-2.0575-0.97975-0.97975-0.58785-1.6656-1.3717-0.68583-0.7838-0.68583-1.5676zm24.886-53.103q-4.7028 5.5846-7.936 12.149-3.1352 6.4664-5.0947 13.325-0.19595 0.58786-0.29393 1.1757 0 0.48987-0.19595 1.0777 0.97975-0.58786 2.5474-0.78381 1.1757-0.098 2.5474-0.48987 1.4696-0.3919 3.0372-0.88178 1.3716-1.8615 2.8413-4.6048 1.4696-2.7433 2.6453-5.8785t1.9595-6.4664q0.7838-3.4291 0.97975-6.6623 0-3.0372-1.4696-2.8413-0.88178 0-1.5676 0.88178z"/>
 </g>
 <g transform="matrix(.037734 -.0002101 -.0029491 .037486 72.36 81.191)" fill="#b484d0" filter="url(#filter1219-1-2-3)" stroke-width="2.4743" aria-label="Swap">
  <path d="m22.381-252.4q-0.88178 0-2.0575-0.3919-1.0777-0.48988-2.0575-1.2737t-1.6656-1.7636q-0.68583-1.0777-0.68583-2.1555 0-2.6453 1.5676-4.9967t3.3312-4.5069q1.8615-2.1555 3.4291-4.2129 1.5676-2.1555 1.5676-4.4089 0-1.6656-0.88178-3.0372-0.7838-1.4696-2.9393-1.4696-2.7433 0-5.8785 1.7636t-5.7805 4.6048q-2.6453 2.7433-4.4089 6.1724-1.6656 3.3312-1.6656 6.5644 0 3.1352 1.6656 5.0947 1.6656 1.8615 4.115 3.2332 2.4494 1.2737 5.1927 2.2534 2.7433 0.88178 4.8988 1.9595 3.7231 1.8615 5.8785 4.9968 2.2534 3.1352 1.3717 7.5441-0.88178 4.115-3.4291 7.2502-2.5474 3.1352-5.9765 5.2907t-7.4461 3.1352q-4.017 1.0777-7.936 1.0777-3.2332 0-6.1725-1.0777-2.9393-0.97976-5.0947-2.8413-2.0575-1.9595-3.0372-4.8008-0.97975-2.8413-0.19595-6.3684 0.7838-3.4291 2.8413-6.1724 0.3919-0.58785 0.97975-1.2737 0.68583-0.68582 1.4696-1.3716 0.7838-0.68583 1.6656-1.0777 0.88178-0.48988 1.6656-0.48988 0.97975 0 2.0575 0.58785 1.1757 0.48988 2.1555 1.3717 0.97975 0.7838 1.6656 1.7636 0.7838 0.97975 1.0777 1.8615 0.097975 0.48988 0.097975 0.97975 0 0.48988-0.58785 0.48988-1.4696 0-3.0372 0.7838-1.5676 0.68583-2.8413 1.8615-1.2737 1.1757-2.1555 2.6453-0.7838 1.4696-0.7838 3.0372 0 1.3717 0.68583 2.2534 0.68583 0.88178 1.6656 1.3717 1.0777 0.48988 2.2534 0.7838 1.2737 0.19595 2.3514 0.19595 2.1555 0 4.8988-0.68582 2.8413-0.68583 5.2907-2.0575 2.5474-1.3716 4.2129-3.3312 1.7636-2.0575 1.7636-4.8008 0-3.5271-3.821-6.0745-2.9393-1.8615-6.1725-3.2332-3.2332-1.4696-6.0745-3.1352-2.7433-1.7636-4.8008-4.3109-1.9595-2.5474-2.5474-6.6623-0.58785-4.7028 1.2737-9.4056 1.8615-4.8008 5.3886-8.6218 3.6251-3.919 8.3279-6.2704 4.8008-2.4494 9.9935-2.4494 4.115 0 7.1522 1.6656 3.0372 1.5676 4.3109 4.7028 1.0777 0.88178 1.6656 2.1555 0.58785 1.1757 0.58785 2.2534 0 2.6453-1.5676 5.4866t-3.4291 5.6826q-1.7636 2.8413-3.3312 5.6826t-1.5676 5.4866q0 0.68583-0.48988 0.68583z"/>
  <path d="m72.152-261.51q1.8615 1.0777 2.5474 3.0372 0.7838 1.9595 0.19595 3.4291-1.1757 2.7433-2.7433 5.9765-1.4696 3.2332-3.3312 6.6623 1.1757 0.68583 2.7433 0.3919 2.3514-0.48987 4.6048-2.9393 2.2534-2.5474 5.0947-7.74 0.29393-0.58786 0.7838-0.68583 0.58785-0.098 0.97975 0.19595 0.48988 0.19595 0.68583 0.68583 0.19595 0.48987-0.09798 1.0777-3.1352 5.7805-5.9765 8.7198-2.7433 2.8413-5.5846 3.3312-2.7433 0.48988-4.6048-0.68583-2.2534 4.115-4.7028 7.936t-4.7028 6.6623q-0.7838 0.88178-1.7636 1.6656t-2.1555 0.7838q-0.88178 0-1.9595-0.29392-1.0777-0.29393-2.1555-0.78381-1.0777-0.58785-1.9595-1.1757-0.88178-0.68583-1.3717-1.3717-0.68583-0.88178-0.7838-2.3514 0-1.5676 0.19595-3.0372-1.4696 2.8413-3.3312 5.5846-1.7636 2.6453-3.4291 3.4291-1.1757 0-2.5474-0.3919-1.3717-0.48988-2.6453-1.1757-1.1757-0.78381-2.0575-1.7636-0.7838-1.0777-0.7838-2.2534 0-3.821 0.19595-7.936 0.29393-4.213 0.7838-8.4259t1.1757-8.2299q0.7838-4.017 1.7636-7.5441 0.48988-1.4696 1.6656-1.4696 1.4696 0 3.3312 0.68583 1.9595 0.58785 2.9393 1.2737 0.7838 0.48988 0.3919 1.4696-0.29393 0.88178-0.48988 1.5676-0.7838 2.8413-1.6656 6.5644-0.7838 3.6251-1.5676 7.4461-0.68583 3.7231-1.1757 7.3482-0.48988 3.6251-0.58785 6.2704 0 1.0777 0.29393 1.4696 0.3919 0.29393 1.1757-0.48988 1.8615-1.6656 3.7231-5.5846 1.8615-4.017 4.115-9.0137 0.88178-4.7028 1.9595-9.2097 1.1757-4.5069 2.2534-8.3279 0.48988-1.4696 1.6656-1.4696 1.4696 0 3.3312 0.68583 1.9595 0.58785 2.9393 1.2737 0.7838 0.48988 0.3919 1.4696-0.29393 0.88178-0.48988 1.5676-1.0777 2.9393-2.2534 6.7603-1.0777 3.821-2.0575 7.7401-0.88178 3.821-1.6656 7.4461-0.68583 3.6251-0.7838 6.2704 0 1.4696 0.88178 0.29393 1.2737-1.7636 2.6453-4.2129 1.4696-2.4494 2.8413-4.9968 1.4696-2.6453 2.6453-5.1927 1.2737-2.6453 2.3514-4.7028 0.19595-2.6453 1.2737-5.9765 1.1757-3.4291 3.7231-7.2502 0.48988-0.78381 1.3717-0.88178 0.97975-0.098 1.7636 0.3919z"/>
  <path d="m92.041-229.67q0.19595-0.97976 0.19595-1.8615 0.09798-0.88178 0.29393-1.8615 0.09798-0.19595 0.09798-0.68583-2.1555 4.5069-4.8988 7.838-2.7433 3.2332-6.0745 3.2332-2.9393 0-4.6048-1.6656-1.5676-1.7636-1.8615-4.4089-0.48988-4.017 0.19595-8.9158 0.7838-4.8988 2.6453-9.5036 1.8615-4.7028 4.6048-8.5239 2.8413-3.919 6.4664-5.8785 1.1757-0.68583 2.3514-0.58785 1.2737 0 2.5474 0.48987 1.2737 0.3919 2.5474 1.0777 1.2737 0.68583 2.6453 1.3717 0.19595-0.19595 0.29393-0.58785 0.09798-0.39191 0.19595-0.68583 0.58785-1.2737 1.4696-1.2737 0.68582 0 1.5676 0.29392 0.97975 0.29393 1.8615 0.78381 0.88178 0.3919 1.5676 0.88178 0.7838 0.48987 1.2737 0.88177 0.7838 0.58786 0.29392 1.4696-0.48987 0.78381-0.7838 1.5676-1.1757 3.2332-2.2534 6.8583t-1.9595 7.2502q-0.88179 3.6251-1.5676 7.0542-0.68583 3.3312-1.1757 5.9765-0.19595 1.0777 0.29393 1.1757t1.0777-0.48987q2.2534-2.2534 4.115-5.2907 1.9595-3.1352 3.5271-6.4664t2.7433-6.5644q1.2737-3.2332 2.2534-5.7806 0.29392-0.58786 0.7838-0.78381t0.97976 0q0.48987 0.19595 0.68583 0.68583 0.29393 0.48988 0.098 1.0777-0.68583 1.6656-1.7636 4.4089-0.97975 2.7433-2.4494 5.9765-1.4696 3.1352-3.2332 6.3684-1.6656 3.2332-3.6251 5.8785-1.8615 2.5474-3.919 4.2129-2.0575 1.6656-4.115 1.6656-1.2737 0-2.3514-0.58785-0.97975-0.58785-1.7636-1.5676-0.68583-0.97975-1.0777-2.1555-0.29393-1.1757-0.19595-2.3514zm-7.5441 1.5676q1.1757 0 2.4494-1.5676 1.2737-1.6656 2.5474-4.115 1.3717-2.5474 2.5474-5.5846 1.1757-3.1352 2.1555-5.9765 1.0777-2.9393 1.7636-5.2907 0.7838-2.3514 1.1757-3.5271 0.19595-0.68582 0.3919-1.2737 0.29393-0.68582 0.58785-1.2737-0.7838-1.2737-2.3514-1.2737-2.5474 0-4.8008 2.7433-2.1555 2.7433-3.821 6.7603-1.6656 3.919-2.7433 8.3279-0.97975 4.3109-1.1757 7.4461 0 0.3919-0.09798 1.1757 0 0.78381 0.09798 1.5676 0.09797 0.68583 0.3919 1.2737 0.29393 0.58785 0.88178 0.58785z"/>
  <path d="m105.37-203.9q0-4.115 0.58786-10.189 0.58785-5.9765 1.6656-12.541 0.97975-6.5644 2.2534-13.031 1.2737-6.4664 2.5474-11.561 1.3717-5.1927 2.6453-8.4259t2.3514-3.2332q0.68583 0 2.1555 0.48988 1.4696 0.3919 2.8413 0.97975 1.3717 0.58786 2.4494 1.3717 1.0777 0.68583 1.0777 1.2737 0 0.098-0.19595 0.48988-0.29393 0.3919-0.68583 0.7838-0.29393 0.29393-0.48988 0.7838-0.88178 1.5676-1.7636 3.7231-0.7838 2.0575-1.5676 4.7028 1.4696-2.7433 3.1352-5.2907 1.6656-2.6453 3.4291-5.0947 1.4696-1.9595 3.1352-3.2332 1.6656-1.3717 3.3312-1.3717 1.5676 0 3.0372 0.88178t2.5474 2.1555q1.0777 1.2737 1.7636 2.8413 0.68583 1.4696 0.68583 2.6453 0 4.115-1.6656 8.7198-1.6656 4.5069-3.919 8.8178 3.4291-2.5474 6.4664-6.2704 3.0372-3.821 5.1927-9.1117 0.29392-0.58785 0.7838-0.68583 0.48988-0.19595 0.97975 0 0.48988 0.19595 0.68583 0.68583 0.29393 0.48988 0.098 1.0777-2.5474 6.3684-7.0542 11.365-4.5069 4.9967-10.581 8.2299-2.8413 3.919-6.0745 6.4664-3.1352 2.4494-5.6826 2.4494-1.9595 0-3.4291-0.48987-1.3717-0.58786-2.1555-1.3717-0.68583 3.821-1.2737 7.4461-0.48988 3.6251-0.88178 6.7603-0.3919 3.2332-0.58785 5.7806-0.19596 2.5474-0.19596 4.115 0 1.1757-1.1757 1.1757-0.88178 0-2.0575-0.3919-1.0777-0.3919-2.0575-0.97975-0.97975-0.58785-1.6656-1.3717-0.68583-0.7838-0.68583-1.5676zm24.886-53.103q-4.7028 5.5846-7.936 12.149-3.1352 6.4664-5.0947 13.325-0.19595 0.58786-0.29393 1.1757 0 0.48987-0.19595 1.0777 0.97975-0.58786 2.5474-0.78381 1.1757-0.098 2.5474-0.48987 1.4696-0.3919 3.0372-0.88178 1.3716-1.8615 2.8413-4.6048 1.4696-2.7433 2.6453-5.8785t1.9595-6.4664q0.7838-3.4291 0.97975-6.6623 0-3.0372-1.4696-2.8413-0.88178 0-1.5676 0.88178z"/>
 </g>
 <g transform="matrix(.80889 0 0 .80889 -72.35 .076)" fill="#fffaff" stroke-width=".11502">
  <path d="m180.88 81.179q-0.0412 2.26e-4 -0.0945-0.01769-0.0485-0.0224-0.0914-0.05846-0.0428-0.03606-0.0712-0.08125-0.0281-0.04971-0.0242-0.09972 0.01-0.12259 0.0914-0.23196 0.0817-0.10938 0.17182-0.20973 0.0947-0.10038 0.17532-0.19612 0.081-0.1003 0.0892-0.20473 6e-3 -0.07713-0.0301-0.14052-0.0312-0.06789-0.13176-0.0673-0.12797 7.07e-4 -0.28066 0.08322-0.15269 0.08253-0.28645 0.2149-0.1334 0.12781-0.22817 0.28719-0.0898 0.15481-0.10164 0.30463-0.0114 0.1453 0.0591 0.23567 0.0709 0.08587 0.18018 0.14875 0.10962 0.05836 0.23402 0.1031 0.12476 0.04018 0.22138 0.08951 0.16689 0.08528 0.25601 0.23004 0.0937 0.14471 0.0365 0.34925-0.0561 0.19092-0.1864 0.33688-0.13028 0.14595-0.29809 0.24673-0.16781 0.10079-0.35878 0.14722-0.19133 0.05099-0.37415 0.05197-0.15083 8.35e-4 -0.28401-0.04834-0.13353-0.04461-0.2273-0.13034-0.0888-0.09029-0.12418-0.22169-0.0354-0.13141 0.0141-0.29508 0.049-0.15912 0.15506-0.28678 0.0204-0.02731 0.0503-0.05925 0.0345-0.03193 0.0736-0.06396 0.039-0.03203 0.0816-0.0504 0.0429-0.02289 0.0795-0.02309 0.0457-2.56e-4 0.0938 0.02672 0.053 0.0224 0.0955 0.06298 0.0428 0.03606 0.0713 0.08135 0.033 0.0452 0.0434 0.08597 3e-3 0.0227 9.8e-4 0.04539-2e-3 0.0227-0.0292 0.02289-0.0686 3.83e-4 -0.14452 0.03714-0.0757 0.03223-0.13933 0.08695-0.0637 0.05482-0.1102 0.12316-0.0419 0.06829-0.0477 0.14095-5e-3 0.06357 0.0238 0.10426 0.0288 0.04068 0.0727 0.06318 0.0485 0.0224 0.10227 0.03576 0.0588 0.0088 0.10898 0.0088 0.10055-5.6e-4 0.23102-0.03301 0.13505-0.03252 0.25431-0.09668 0.12385-0.06426 0.20868-0.15546 0.0898-0.0958 0.0998-0.22294 0.0129-0.16345-0.1561-0.28052-0.13033-0.08548-0.27616-0.14822-0.14546-0.0673-0.27193-0.14371-0.12154-0.08096-0.20824-0.19854-0.0821-0.11754-0.0945-0.30808-0.0104-0.21779 0.0937-0.4362 0.10434-0.22296 0.28281-0.40096 0.18339-0.18255 0.41135-0.29274 0.23289-0.11476 0.47512-0.11609 0.19196-9.83e-4 0.32757 0.07536 0.13597 0.07182 0.18396 0.21682 0.0471 0.04058 0.0699 0.09947 0.0231 0.05433 0.0192 0.10428-0.01 0.12259-0.0932 0.25467-0.0835 0.13206-0.18068 0.26423-0.0927 0.13212-0.17611 0.2642-0.0835 0.13207-0.0931 0.25467-3e-3 0.03183-0.0254 0.03193z"/>
  <path d="m183.24 80.744q0.0829 0.04942 0.10775 0.1401 0.0294 0.09059-4e-3 0.15887-0.0649 0.12744-0.14976 0.27767-0.0804 0.15022-0.17968 0.30961 0.0524 0.03144 0.12654 0.01749 0.11148-0.02329 0.22553-0.1374 0.11439-0.11862 0.26588-0.36002 0.0158-0.02731 0.0391-0.03203 0.0278-0.0049 0.045 0.0088 0.0221 0.0088 0.0295 0.03164 7e-3 0.0227-9e-3 0.05001-0.16734 0.26869-0.3106 0.40564-0.13832 0.13238-0.27266 0.15581-0.12975 0.02338-0.21231-0.03056-0.12013 0.19128-0.24832 0.36899-0.1282 0.17772-0.24367 0.30997-0.0398 0.04107-0.0883 0.07762t-0.1034 0.03694q-0.0411 2.26e-4 -0.0903-0.01317-0.0492-0.01336-0.0977-0.03576-0.0481-0.02692-0.0872-0.05394-0.0386-0.03154-0.059-0.06318-0.0288-0.04068-0.028-0.10876 6e-3 -0.07261 0.0202-0.14081-0.0789 0.13205-0.17576 0.25966-0.0919 0.12305-0.17247 0.15982-0.0548 3.05e-4 -0.1174-0.01749-0.0622-0.0223-0.11912-0.05384-0.052-0.03606-0.0895-0.08116-0.0326-0.04972-0.0284-0.10423 0.0139-0.17707 0.0381-0.36783 0.0291-0.19531 0.0673-0.39067t0.0848-0.3817q0.0512-0.18636 0.10977-0.35006 0.0282-0.06819 0.083-0.06848 0.0686-3.84e-4 0.1529 0.03095 0.0893 0.02673 0.13247 0.05826 0.0348 0.0225 0.0129 0.06799-0.0169 0.04097-0.0286 0.07281-0.047 0.13186-0.10164 0.30463-0.0498 0.16819-0.10028 0.34547-0.0456 0.17272-0.0816 0.34084-0.0361 0.16812-0.0503 0.29074-4e-3 0.04991 9e-3 0.06799 0.0173 0.01346 0.0566-0.02299 0.093-0.07772 0.19404-0.25977 0.10148-0.18664 0.22482-0.41878 0.0583-0.21817 0.125-0.4273 0.0712-0.20917 0.13547-0.38652 0.0282-0.06819 0.083-0.06848 0.0686-3.83e-4 0.1529 0.03095 0.0892 0.02672 0.13247 0.05826 0.0348 0.0225 0.0129 0.06799-0.0169 0.04097-0.0286 0.07281-0.061 0.13649-0.12977 0.31387-0.0642 0.17736-0.12418 0.35923-0.0551 0.1773-0.10485 0.3455-0.0452 0.16817-0.0594 0.29078-5e-3 0.06809 0.0401 0.01336 0.0658-0.08204 0.13875-0.19592 0.0775-0.11388 0.15076-0.2323 0.0782-0.12298 0.14234-0.24133 0.0691-0.12291 0.12683-0.21854 0.0188-0.12264 0.0813-0.2773 0.0674-0.15922 0.20012-0.33696 0.0257-0.03645 0.0672-0.04117 0.0461-0.0049 0.0809 0.01769z"/>
  <path d="m184.05 82.214q0.0127-0.04549 0.0158-0.08636 8e-3 -0.04087 0.0205-0.08636 6e-3 -0.0088 7e-3 -0.03183-0.117 0.20942-0.2571 0.3645-0.13975 0.15055-0.29516 0.15143-0.13712 7.57e-4 -0.20874-0.07595-0.0667-0.08135-0.0708-0.20383-8e-3 -0.18603 0.0417-0.41323 0.0544-0.22722 0.15805-0.4411 0.104-0.21842 0.24589-0.3962 0.14683-0.18236 0.32309-0.2741 0.0574-0.03213 0.11182-0.02781 0.0594-3.24e-4 0.11705 0.02201 0.058 0.01778 0.11491 0.04932 0.0569 0.03144 0.11839 0.06288 0.01-0.0088 0.0158-0.02731 6e-3 -0.01818 0.0115-0.03183 0.032-0.05915 0.0732-0.05944 0.032-1.77e-4 0.072 0.01317 0.0446 0.01336 0.084 0.03586 0.0397 0.01788 0.0699 0.04048 0.0348 0.0225 0.0562 0.04058 0.0344 0.02702 9e-3 0.06799-0.0257 0.03645-0.0422 0.07281-0.0666 0.15013-0.13014 0.31841-0.0635 0.16828-0.11784 0.3365-0.0543 0.16823-0.0988 0.32732-0.0441 0.15454-0.0766 0.27727-0.013 0.05001 0.01 0.05443 0.0225 0.0049 0.0521-0.02299 0.11332-0.105 0.21125-0.24625 0.10282-0.1458 0.18811-0.30058 0.0853-0.1548 0.15191-0.30492 0.0712-0.15017 0.12621-0.26846 0.0158-0.02731 0.0394-0.03655 0.0236-0.0088 0.0457-2.55e-4 0.0221 0.0088 0.0295 0.03164 0.012 0.0226 6.4e-4 0.04991-0.038 0.07733-0.0983 0.20478-0.0557 0.12737-0.13605 0.2776-0.08 0.14567-0.17403 0.29596-0.0895 0.15027-0.19055 0.27336-0.0961 0.11854-0.19818 0.19626-0.10205 0.07772-0.19803 0.07821-0.0594 3.34e-4 -0.10754-0.02663-0.0435-0.02702-0.0765-0.07222-0.0284-0.0452-0.0423-0.09961-0.01-0.05443-5.7e-4 -0.10891zm-0.35764 0.07457q0.0548-3.05e-4 0.11999-0.0733 0.0654-0.07752 0.13383-0.19136 0.0733-0.11839 0.13919-0.25945 0.0663-0.14562 0.12234-0.27752 0.061-0.1365 0.10155-0.24564 0.0451-0.10917 0.0677-0.16375 0.0115-0.03183 0.0229-0.05915 0.0163-0.03183 0.032-0.05915-0.0319-0.05885-0.10506-0.05846-0.11881 6.58e-4 -0.23394 0.12838-0.11057 0.1277-0.2029 0.31428-0.092 0.18205-0.15833 0.38664-0.0614 0.20003-0.082 0.34538-9.8e-4 0.01818-9e-3 0.05453-3e-3 0.03635-9.8e-4 0.07261 2e-3 0.03173 0.0135 0.05895 0.0115 0.02712 0.039 0.02702z"/>
  <path d="m184.58 83.405q0.0149-0.19069 0.0646-0.47235 0.0492-0.27711 0.12342-0.5816 0.0697-0.30446 0.15262-0.60445 0.083-0.29999 0.16098-0.53643 0.0829-0.24099 0.15412-0.39116 0.0712-0.15017 0.12149-0.15042 0.032-1.77e-4 0.0988 0.02211 0.0671 0.01778 0.12898 0.04461 0.0618 0.02692 0.10924 0.06298 0.0478 0.03154 0.0457 0.05876-3.6e-4 0.0049-0.0109 0.02279-0.0151 0.01828-0.0349 0.03645-0.0148 0.01366-0.0257 0.03645-0.0469 0.0729-0.0959 0.17299-0.0441 0.0955-0.0903 0.21835 0.0785-0.12751 0.16554-0.246 0.0874-0.12304 0.17855-0.23699 0.0757-0.09118 0.15805-0.15065 0.0827-0.06406 0.1604-0.06445 0.0731-4.03e-4 0.13848 0.04009 0.0653 0.04048 0.11096 0.09922 0.0456 0.05876 0.0719 0.13121 0.0266 0.06789 0.0223 0.12241-0.0149 0.1907-0.10947 0.40452-0.0941 0.20929-0.21497 0.40965 0.16926-0.11894 0.32451-0.29226 0.15562-0.17786 0.27546-0.4236 0.0158-0.02731 0.0391-0.03203 0.0236-0.0088 0.0457-2.56e-4 0.0222 0.0088 0.0295 0.03164 0.012 0.0226 6.4e-4 0.04991-0.14206 0.29578-0.37052 0.52851-0.22845 0.23273-0.52361 0.38414-0.14683 0.18236-0.30694 0.30124-0.15519 0.11434-0.27402 0.11499-0.0914 5.11e-4 -0.15816-0.02181-0.0618-0.02692-0.0956-0.06298-0.0459 0.17725-0.0866 0.3454-0.0361 0.16812-0.0658 0.31351-0.0301 0.14994-0.0485 0.26804-0.0185 0.11809-0.0242 0.19075-4e-3 0.05453-0.0591 0.05473-0.0412 2.26e-4 -0.0945-0.01769-0.0488-0.01788-0.0923-0.0449t-0.0727-0.06308q-0.0291-0.03616-0.0262-0.07251zm1.3545-2.4673q-0.23974 0.26002-0.4145 0.56507-0.16983 0.30048-0.28625 0.61881-0.0112 0.02731-0.018 0.05453-2e-3 0.0227-0.013 0.05001 0.0478-0.02751 0.1217-0.03694 0.0552-0.0049 0.12063-0.02338 0.0701-0.01857 0.14491-0.04166 0.0707-0.08666 0.14933-0.21413 0.0785-0.12751 0.14483-0.27311 0.0663-0.14559 0.11499-0.30017 0.049-0.15912 0.07-0.309 0.011-0.14076-0.0582-0.1313-0.0412 2.26e-4 -0.0763 0.04127z"/>
 </g>
 <ellipse cx="65.283" cy="39.477" rx="21.935" ry="19.607" fill="url(#linearGradient1409)" stroke-linecap="round" stroke-linejoin="round" stroke-width="4.1976"/>
 <rect x="5.26" y="12.364" width="118.62" height="103.83" rx="17.183" ry="17.183" fill="url(#radialGradient959-5-8-5)"/>
 <g transform="translate(270.4,-10.322)" shape-rendering="auto">
  <path d="m-265.72 66.51h117.98v33.074h-117.98z" color="#000000" color-rendering="auto" dominant-baseline="auto" fill="#fdf" image-rendering="auto" solid-color="#000000" stop-color="#000000" style="font-feature-settings:normal;font-variant-alternates:normal;font-variant-caps:normal;font-variant-east-asian:normal;font-variant-ligatures:normal;font-variant-numeric:normal;font-variant-position:normal;font-variation-settings:normal;inline-size:0;isolation:auto;mix-blend-mode:normal;shape-margin:0;shape-padding:0;text-decoration-color:#000000;text-decoration-line:none;text-decoration-style:solid;text-indent:0;text-orientation:mixed;text-transform:none;white-space:normal"/>
  <path d="m-265.72 65.646a0.86279 0.86279 0 0 0-0.86328 0.86328v33.074a0.86279 0.86279 0 0 0 0.86328 0.86329h117.98a0.86279 0.86279 0 0 0 0.86328-0.86329v-33.074a0.86279 0.86279 0 0 0-0.86328-0.86328zm0.86328 1.7266h116.26v31.348h-116.26z" color="#000000" color-rendering="auto" dominant-baseline="auto" fill="#d3b6e4" image-rendering="auto" solid-color="#000000" stop-color="#000000" style="font-feature-settings:normal;font-variant-alternates:normal;font-variant-caps:normal;font-variant-east-asian:normal;font-variant-ligatures:normal;font-variant-numeric:normal;font-variant-position:normal;font-variation-settings:normal;inline-size:0;isolation:auto;mix-blend-mode:normal;shape-margin:0;shape-padding:0;text-decoration-color:#000000;text-decoration-line:none;text-decoration-style:solid;text-indent:0;text-orientation:mixed;text-transform:none;white-space:normal"/>
 </g>
 <path d="m10.61 21.123s53.452-1.0671 74.031 20.132c20.579 21.199 17.893 74.76 17.893 74.76l15.254-0.96784 7.7169-10.271-0.52521-81.444-6.4155-10.181-66.244-1.9867-33.718 2.6711z" fill="#fff" fill-opacity=".46843" stroke="#fdfdfd" stroke-opacity=".40326" stroke-width="1.101"/>
 <g transform="matrix(1.9751 0 0 1.9751 -57.81 -213.74)" fill="#850085" style="shape-inside:url(#rect1013-0-2-6-0-3);white-space:pre" aria-label="POOLS">
  <path d="m37.62 139.99h4.9555q1.6189 0 2.4218 0.76998 0.80946 0.76997 0.80946 2.1915 0 1.461-0.88186 2.2836-0.87527 0.82263-2.6785 0.82263h-1.6321v3.5801h-2.9944zm2.9944 4.1131h0.73049q0.86211 0 1.2109-0.29615 0.34879-0.30273 0.34879-0.76998 0-0.45409-0.30273-0.76997-0.30273-0.31589-1.1385-0.31589h-0.84895z"/>
  <path d="m46.992 144.82q0-2.3626 1.3162-3.6788t3.6656-1.3162q2.4086 0 3.7117 1.2965 1.303 1.2899 1.303 3.6196 0 1.6913-0.57255 2.7772-0.56597 1.0793-1.6453 1.6847-1.0727 0.59887-2.6785 0.59887-1.6321 0-2.7048-0.5199-1.0661-0.5199-1.7308-1.6452-0.66468-1.1254-0.66468-2.8167zm2.9812 0.0132q0 1.461 0.53964 2.0993 0.54622 0.63836 1.4807 0.63836 0.96083 0 1.4873-0.6252 0.52648-0.62519 0.52648-2.2441 0-1.3623-0.5528-1.9875-0.54622-0.63177-1.4873-0.63177-0.9016 0-1.4478 0.63836-0.54622 0.63835-0.54622 2.1125z"/>
  <path d="m58.219 144.82q0-2.3626 1.3162-3.6788t3.6656-1.3162q2.4086 0 3.7117 1.2965 1.303 1.2899 1.303 3.6196 0 1.6913-0.57255 2.7772-0.56597 1.0793-1.6453 1.6847-1.0727 0.59887-2.6785 0.59887-1.6321 0-2.7048-0.5199-1.0661-0.5199-1.7308-1.6452-0.66468-1.1254-0.66468-2.8167zm2.9812 0.0132q0 1.461 0.53964 2.0993 0.54622 0.63836 1.4807 0.63836 0.96083 0 1.4873-0.6252 0.52648-0.62519 0.52648-2.2441 0-1.3623-0.5528-1.9875-0.54622-0.63177-1.4873-0.63177-0.9016 0-1.4478 0.63836-0.54622 0.63835-0.54622 2.1125z"/>
  <path d="m69.821 139.99h2.9812v7.272h4.6528v2.3757h-7.634z"/>
  <path d="m78.291 146.44 2.8364-0.17768q0.09213 0.691 0.37512 1.053 0.46067 0.58571 1.3162 0.58571 0.63836 0 0.98057-0.29615 0.34879-0.30272 0.34879-0.69758 0-0.37512-0.32905-0.67127-0.32905-0.29614-1.5268-0.55938-1.9611-0.44093-2.7969-1.1714-0.84237-0.73049-0.84237-1.8624 0-0.74365 0.42777-1.4018 0.43435-0.66468 1.2965-1.0398 0.86869-0.3817 2.3757-0.3817 1.8493 0 2.8167 0.69101 0.97399 0.68442 1.1583 2.1849l-2.8101 0.16453q-0.11188-0.65152-0.47383-0.94767-0.35537-0.29614-0.98715-0.29614-0.5199 0-0.78314 0.22375-0.26324 0.21717-0.26324 0.53306 0 0.23034 0.21717 0.41461 0.21059 0.19085 1.0003 0.35537 1.9546 0.42119 2.7969 0.85553 0.84895 0.42777 1.2306 1.0661 0.38828 0.63836 0.38828 1.4281 0 0.92792-0.51332 1.7111t-1.4347 1.1912q-0.92134 0.40144-2.3231 0.40144-2.4613 0-3.409-0.94767-0.94766-0.94766-1.0727-2.4086z"/>
 </g>
 <rect x="5.26" y="12.364" width="118.62" height="103.83" rx="17.183" ry="17.183" fill="none" stroke="#850085" stroke-width="5.9262"/>
 <rect x="5.26" y="12.364" width="118.62" height="103.83" rx="17.183" ry="17.183" fill="none" stroke="#850085" stroke-width="5.9262"/>
</svg>
