<?xml version="1.0" encoding="UTF-8" standalone="no"?>
<svg
   xmlns:dc="http://purl.org/dc/elements/1.1/"
   xmlns:cc="http://creativecommons.org/ns#"
   xmlns:rdf="http://www.w3.org/1999/02/22-rdf-syntax-ns#"
   xmlns:svg="http://www.w3.org/2000/svg"
   xmlns="http://www.w3.org/2000/svg"
   xmlns:sodipodi="http://sodipodi.sourceforge.net/DTD/sodipodi-0.dtd"
   xmlns:inkscape="http://www.inkscape.org/namespaces/inkscape"
   width="64"
   height="64"
   fill="none"
   version="1.1"
   id="svg17"
   sodipodi:docname="bunny-question.svg"
   inkscape:version="1.0.1 (3bc2e813f5, 2020-09-07)">
  <defs
     id="defs21">
    <clipPath
       clipPathUnits="userSpaceOnUse"
       id="clipPath3201-4">
      <rect
         style="opacity:1;fill:#ffffff;fill-opacity:1;stroke:none;stroke-width:3.20266;stroke-linecap:round;stroke-linejoin:round;stroke-miterlimit:4;stroke-dasharray:none;stroke-opacity:1"
         id="rect3203-9"
         width="172.32408"
         height="55.008789"
         x="433.53275"
         y="-103.58672"
         transform="matrix(1,0,0.46622809,0.88466455,0,0)" />
    </clipPath>
    <clipPath
       clipPathUnits="userSpaceOnUse"
       id="clipPath3205-2">
      <rect
         style="opacity:1;fill:#ffffff;fill-opacity:1;stroke:none;stroke-width:3.20266;stroke-linecap:round;stroke-linejoin:round;stroke-miterlimit:4;stroke-dasharray:none;stroke-opacity:1"
         id="rect3207-06"
         width="172.32405"
         height="55.008789"
         x="433.53275"
         y="-103.58672"
         transform="matrix(1,0,0.46622809,0.88466455,0,0)" />
    </clipPath>
    <clipPath
       clipPathUnits="userSpaceOnUse"
       id="clipPath3201-8-3-6">
      <rect
         style="opacity:1;fill:#ffffff;fill-opacity:1;stroke:none;stroke-width:3.20266;stroke-linecap:round;stroke-linejoin:round;stroke-miterlimit:4;stroke-dasharray:none;stroke-opacity:1"
         id="rect3203-4-6-1"
         width="172.32408"
         height="55.008789"
         x="433.53275"
         y="-103.58672"
         transform="matrix(1,0,0.46622809,0.88466455,0,0)" />
    </clipPath>
    <clipPath
       clipPathUnits="userSpaceOnUse"
       id="clipPath3205-5-5-1">
      <rect
         style="opacity:1;fill:#ffffff;fill-opacity:1;stroke:none;stroke-width:3.20266;stroke-linecap:round;stroke-linejoin:round;stroke-miterlimit:4;stroke-dasharray:none;stroke-opacity:1"
         id="rect3207-0-6-5"
         width="172.32405"
         height="55.008789"
         x="433.53275"
         y="-103.58672"
         transform="matrix(1,0,0.46622809,0.88466455,0,0)" />
    </clipPath>
    <clipPath
       clipPathUnits="userSpaceOnUse"
       id="clipPath903">
      <path
         d="M 64,32 C 64,49.673 49.673,64 32,64 14.327,64 0,49.673 0,32 0,14.327 14.327,0 32,0 49.673,0 64,14.327 64,32 Z"
         fill="#e9eaeb"
         id="path905" />
    </clipPath>
  </defs>
  <sodipodi:namedview
     pagecolor="#ffffff"
     bordercolor="#666666"
     borderopacity="1"
     objecttolerance="10"
     gridtolerance="10"
     guidetolerance="10"
     inkscape:pageopacity="0"
     inkscape:pageshadow="2"
     inkscape:window-width="1920"
     inkscape:window-height="1016"
     id="namedview19"
     showgrid="false"
     inkscape:zoom="6.7734375"
     inkscape:cx="45.384939"
     inkscape:cy="46.612918"
     inkscape:window-x="0"
     inkscape:window-y="27"
     inkscape:window-maximized="1"
     inkscape:current-layer="svg17" />
  <metadata
     id="metadata2">
    <rdf:RDF>
      <cc:Work
         rdf:about="">
        <dc:format>image/svg+xml</dc:format>
        <dc:type
           rdf:resource="http://purl.org/dc/dcmitype/StillImage" />
        <dc:title />
      </cc:Work>
    </rdf:RDF>
  </metadata>
  <path
     d="M64 32c0 17.673-14.327 32-32 32S0 49.673 0 32 14.327 0 32 0s32 14.327 32 32z"
     fill="#e9eaeb"
     id="path4" />
  <mask
     id="A"
     x="3"
     y="3"
     width="58"
     height="58"
     mask-type="alpha"
     maskUnits="userSpaceOnUse">
    <path
       d="M60.667 32c0 15.832-12.834 28.667-28.667 28.667S3.333 47.832 3.333 32 16.168 3.333 32 3.333 60.667 16.168 60.667 32z"
       fill="#c4c4c4"
       id="path6" />
  </mask>
  <path
     d="m 30.242,23.064 v -0.6 c 0,-0.844 0.17,-1.55 0.506,-2.12 0.36,-0.57 0.834,-1.13 1.424,-1.678 a 14.95,14.95 0 0 1 1.614,-1.361 c 0.528,-0.38 0.96,-0.78 1.298,-1.203 a 2.31,2.31 0 0 0 0.507,-1.488 c 0,-0.823 -0.295,-1.403 -0.886,-1.74 -0.57,-0.36 -1.53,-0.538 -2.88,-0.538 a 10.1,10.1 0 0 0 -2.627,0.348 c -0.865,0.21 -1.604,0.485 -2.216,0.823 V 9.23 c 0.78,-0.38 1.7,-0.686 2.754,-0.918 1.076,-0.232 2.248,-0.348 3.514,-0.348 2.448,0 4.316,0.538 5.603,1.614 1.287,1.055 1.93,2.51 1.93,4.368 0,1.182 -0.243,2.142 -0.728,2.88 -0.485,0.718 -1.192,1.456 -2.12,2.216 l -1.963,1.7 c -0.528,0.464 -0.79,1.097 -0.79,1.9 v 0.412 h -4.938 z m -0.222,5.603 v -3.672 h 5.35 v 3.672 z"
     id="path9"
     style="fill:#bdc2c4" />
  <path
     d="m 63.986,32.97 -2,-0.06 L 62,32 l -0.014,-0.91 2,-0.06 L 64,32 Z m -0.115,-3.867 -1.992,0.18 -0.216,-1.8 1.978,-0.298 z m -0.577,-3.82 -1.956,0.418 -0.432,-1.76 1.927,-0.536 0.46,1.878 z m -1.036,-3.724 -1.89,0.652 -0.642,-1.693 1.847,-0.766 0.686,1.807 z m -1.48,-3.57 -1.798,0.877 -0.843,-1.604 1.74,-0.984 0.9,1.71 z m -1.902,-3.365 -1.678,1.087 -1.03,-1.49 1.6,-1.187 1.1,1.6 z m -2.293,-3.11 -1.536,1.28 -1.203,-1.357 1.456,-1.37 1.282,1.447 z M 53.934,8.7 l -1.37,1.456 -1.357,-1.203 1.28,-1.536 z m -2.968,-2.476 -1.187,1.6 -1.49,-1.03 1.087,-1.68 1.6,1.1 z m -3.243,-2.1 -0.984,1.74 -1.604,-0.844 0.877,-1.798 1.71,0.9 z M 44.25,2.428 43.484,4.275 41.791,3.632 42.443,1.742 Z m -3.653,-1.26 -0.536,1.927 -1.76,-0.432 0.418,-1.956 1.878,0.46 z m -3.781,-0.808 -0.3,1.978 -1.8,-0.216 0.18,-1.992 1.918,0.23 z M 32.97,0.014 32,0 l -0.97,0.014 0.06,2 L 32,2 32.91,2.014 Z m -3.868,0.116 0.18,1.992 -1.8,0.216 -0.298,-1.978 z m -3.82,0.577 0.418,1.956 -1.76,0.432 -0.536,-1.927 1.878,-0.46 z m -3.724,1.036 0.652,1.89 -1.693,0.643 -0.766,-1.847 z m -3.57,1.48 0.877,1.798 -1.604,0.844 -0.984,-1.74 1.71,-0.9 z m -3.365,1.902 1.087,1.68 -1.49,1.03 -1.187,-1.6 1.6,-1.1 z m -3.11,2.293 1.28,1.536 -1.357,1.203 -1.37,-1.456 1.447,-1.282 z m -2.813,2.648 1.456,1.37 -1.203,1.357 -1.536,-1.28 z m -2.476,2.968 1.6,1.187 -1.03,1.49 -1.68,-1.087 1.1,-1.6 z m -2.1,3.243 1.74,0.984 -0.844,1.604 -1.798,-0.877 0.9,-1.71 z m -1.696,3.473 1.847,0.766 -0.643,1.693 -1.89,-0.652 z m -1.26,3.653 1.927,0.536 -0.432,1.76 -1.956,-0.418 0.46,-1.878 z m -0.808,3.78 1.978,0.298 -0.216,1.8 -1.992,-0.18 z M 0.014,31.03 0,32 l 0.014,0.97 2,-0.06 L 2,32 2.014,31.09 Z m 0.115,3.867 1.992,-0.18 0.216,1.8 -1.978,0.3 -0.23,-1.918 z m 0.577,3.82 1.956,-0.418 0.432,1.76 -1.927,0.536 -0.46,-1.878 z m 1.036,3.723 1.89,-0.652 0.643,1.693 -1.847,0.766 z m 1.48,3.57 1.798,-0.877 0.844,1.604 -1.74,0.984 -0.9,-1.71 z m 1.902,3.365 1.68,-1.087 1.03,1.49 -1.6,1.187 -1.1,-1.6 z m 2.293,3.11 1.536,-1.28 1.203,1.357 -1.456,1.37 -1.282,-1.447 z m 2.65,2.814 1.37,-1.456 1.357,1.203 -1.28,1.536 -1.447,-1.282 z m 2.968,2.476 1.187,-1.6 1.49,1.03 -1.087,1.678 -1.6,-1.1 z m 3.243,2.1 0.984,-1.74 1.604,0.843 -0.877,1.798 -1.71,-0.9 z m 3.474,1.694 0.766,-1.847 1.693,0.642 -0.652,1.89 -1.807,-0.686 z m 3.653,1.26 0.536,-1.927 1.76,0.432 -0.418,1.956 -1.878,-0.46 z m 3.78,0.808 0.298,-1.978 1.8,0.216 -0.18,1.992 z m 3.847,0.346 0.06,-2 L 32,62 l 0.91,-0.014 0.06,2 L 32,64 c -0.324,0 -0.647,-0.005 -0.97,-0.014 z m 3.867,-0.115 -0.18,-1.992 1.8,-0.216 0.3,1.978 -1.918,0.23 z m 3.82,-0.577 -0.418,-1.956 1.76,-0.432 0.536,1.927 -1.878,0.46 z m 3.723,-1.036 -0.652,-1.89 1.693,-0.642 0.766,1.847 -1.807,0.686 z m 3.57,-1.48 -0.877,-1.798 1.604,-0.843 0.984,1.74 -1.71,0.9 z m 3.365,-1.902 -1.087,-1.678 1.49,-1.03 1.187,1.6 -1.6,1.1 z m 3.11,-2.293 -1.28,-1.536 1.357,-1.203 1.37,1.456 -1.447,1.282 z m 2.814,-2.65 -1.456,-1.37 1.203,-1.357 1.536,1.28 -1.282,1.447 z m 2.476,-2.968 -1.6,-1.187 1.03,-1.49 1.678,1.087 -1.1,1.6 z m 2.1,-3.243 -1.74,-0.984 0.843,-1.604 1.798,0.877 -0.9,1.71 z m 1.694,-3.474 -1.847,-0.766 0.642,-1.693 1.89,0.652 -0.686,1.807 z m 1.26,-3.653 -1.927,-0.536 0.432,-1.76 1.956,0.418 -0.46,1.878 z m 0.808,-3.78 -1.978,-0.3 0.216,-1.8 1.992,0.18 -0.23,1.918 z"
     fill-rule="evenodd"
     id="path11"
     style="fill:#bdc2c4" />
  <path
     id="path3981-9-5-1"
     style="fill:#000000;fill-opacity:1;stroke-width:0.372;opacity:0.14268003;stroke:#000000;stroke-opacity:1;stroke-miterlimit:4;stroke-dasharray:none"
     d="m 41.451387,26.436056 c -0.400502,-0.01701 -0.808134,0.142378 -1.09499,0.461642 l -4.179592,4.651637 c -1.233531,-0.603111 -2.57489,-0.907189 -3.919494,-0.90819 v 9.1e-5 c -2.196966,-0.0011 -4.401781,0.803854 -6.155659,2.427677 -0.37828,0.350216 -1.081381,1.183734 -1.359961,1.612342 -0.01,0.01566 -0.285628,0.07474 -0.612167,0.131124 -0.326617,0.0564 -0.906246,0.202504 -1.287937,0.324769 -3.504848,1.122692 -6.111338,4.054436 -6.903278,7.764402 -0.126702,0.593631 -0.157536,0.980032 -0.157536,1.970526 0,1.282276 0.09791,1.951698 0.448894,3.06912 l 0.144414,0.460031 -0.260298,0.228665 c -0.143182,0.125714 -0.318579,0.359903 -0.38959,0.520558 -0.182163,0.411751 -0.243389,1.154901 -0.142638,1.733413 0.240013,1.378131 0.894134,2.134051 1.851227,2.140085 0.05462,0.09765 0.09202,0.162788 0.152873,0.272855 0.341472,0.617369 0.799793,1.454326 1.328702,2.425699 1.057894,1.942732 2.399,4.424461 3.657232,6.774122 2.999753,5.601885 3.956775,7.34023 5.051852,9.172165 1.226439,1.631803 2.643548,3.60828 3.541716,4.241737 0.390552,0.27542 0.902211,0.263789 1.341098,0.07472 1.896373,-0.816908 9.568464,-15.202245 13.882564,-22.961955 l 0.09897,-0.0099 c 0.606424,-0.06081 0.930761,-0.255024 1.244099,-0.744919 0.642608,-1.004546 0.707835,-2.677958 0.133828,-3.430535 -0.218658,-0.286699 -0.576981,-0.522828 -0.794132,-0.523261 -0.150185,-9e-5 -0.15204,-0.01752 -0.117291,-1.222007 0.04245,-1.47 -0.07268,-2.308401 -0.490919,-3.570459 -0.512386,-1.546209 -1.208458,-2.700647 -2.334974,-3.872607 -0.806729,-0.839239 -1.575035,-1.431875 -2.530633,-1.952011 l -0.667474,-0.36338 -0.197399,-0.588821 c -0.182011,-0.543607 -0.41714,-1.069911 -0.697879,-1.567616 l 4.260424,-4.741766 c 0.509892,-0.567506 0.462248,-1.456851 -0.105276,-1.966743 l -1.866306,-1.676982 c -0.248294,-0.223062 -0.560009,-0.34314 -0.871776,-0.356376 z m -0.04204,1.007532 c 0.08582,0.0036 0.168116,0.03427 0.240318,0.09915 l 1.866353,1.676829 c 0.164996,0.148261 0.177364,0.378206 0.02925,0.543197 l -4.075748,4.536145 -0.809771,0.90119 -0.988346,1.09986 c -0.437151,-0.03238 -0.888927,-0.06223 -1.334093,-0.05712 -1.531804,0.01761 -2.678839,0.583662 -3.063189,0.785513 -0.0697,-0.05783 -0.236781,-0.176301 -0.395901,-0.298726 l 3.389776,-3.772725 0.809917,-0.901369 4.028721,-4.483692 c 0.08332,-0.09276 0.19216,-0.132958 0.302862,-0.128256 z m -9.138576,4.370703 c 1.04335,0.0082 2.08612,0.229902 3.072351,0.663011 l -3.581788,3.986306 c -0.01657,0.01832 -0.03156,0.03772 -0.04502,0.0582 -1.21042,-0.862357 -2.478739,-1.406775 -3.916243,-1.684197 -0.422575,-0.08154 -0.946059,-0.14819 -1.163287,-0.14819 -0.217185,0 -0.394812,-0.02701 -0.394812,-0.06 0,-0.113409 1.124097,-1.147361 1.585571,-1.458398 1.360733,-0.917148 2.902306,-1.368881 4.443282,-1.356732 z m -6.539523,4.03714 v 0 c 0.831597,-0.0027 1.741879,0.08245 2.345032,0.240341 5.016303,1.313144 7.930773,6.604985 6.352008,11.533555 l -0.22096,0.68977 h -1.259002 c -0.692486,0 -1.311772,0.02011 -1.376312,0.04492 -0.301607,0.115754 -0.328735,0.346456 -0.331041,2.759977 0,0.343881 -0.0036,0.570938 -0.0036,0.822155 v 0 0.431294 c -0.0096,0.936945 -0.03814,1.10207 -0.122165,1.205837 -0.25684,0.317091 -0.598766,0.394136 -0.94824,0.213405 -0.289756,-0.149822 -0.355571,-0.307784 -0.369156,-1.419243 h -0.0036 v -0.431828 c 0,-0.08938 0,-0.166174 0,-0.265311 v -1.632992 l -0.22023,-0.220223 c -0.184131,-0.184138 -0.258075,-0.212734 -0.449587,-0.174418 -0.126052,0.02527 -0.29595,0.106607 -0.377575,0.181063 -0.34705,0.316485 -0.633826,0.405599 -1.308074,0.405781 -0.575986,8.8e-5 -0.690448,-0.02228 -0.978414,-0.192203 -0.1794,-0.105823 -0.40525,-0.277001 -0.501889,-0.380454 -0.232358,-0.24874 -0.638187,-0.259171 -0.860957,-0.02207 l -0.156103,0.166163 -0.0089,2.133438 h -0.03269 c 0.01731,0 0.0312,0.09621 0.0312,0.215732 0,0.119513 -0.01382,0.215735 -0.0312,0.215735 h 0.0312 l -0.0093,2.239597 -0.01965,4.804692 -0.236742,0.211242 c -0.27181,0.242747 -0.613005,0.27917 -0.878231,0.0934 -0.374694,-0.262209 -0.370956,-0.207004 -0.370956,-5.846169 v -1.502768 h 0.03114 c -0.01731,0 -0.03114,-0.09622 -0.03114,-0.215733 0,-0.119521 0.01383,-0.215732 0.03114,-0.215732 h -0.03116 v -3.310021 l -0.16755,-0.15771 C 23.082522,48.316524 23.054733,48.315119 20.32543,48.315119 h -2.755332 l -0.227775,-0.742921 c -0.318911,-1.040507 -0.396359,-1.54552 -0.400933,-2.627236 -0.0066,-1.466039 0.252869,-2.652458 0.860412,-3.937081 0.45478,-0.961556 0.909674,-1.614443 1.679333,-2.410246 1.392482,-1.439719 2.939644,-2.270741 4.922732,-2.644122 0.359016,-0.06761 0.829734,-0.100528 1.328706,-0.102034 z m 13.465967,0.258843 c 0.171968,0.322599 0.30787,0.60788 0.30787,0.668756 0,0.03521 -0.285435,-8.03e-4 -0.634257,-0.07975 -0.05743,-0.01306 -0.11384,-0.02493 -0.170465,-0.03593 z m -2.423173,1.594018 c 0.58642,-0.0072 1.177181,0.02313 1.571382,0.09359 1.901564,0.339823 3.435947,1.164619 4.856057,2.610535 1.45545,1.481889 2.277926,3.141167 2.542451,5.129094 0.08667,0.65137 0.06382,2.533965 -0.03269,2.690109 -0.04148,0.06714 -1.244757,0.08748 -5.152627,0.08748 h -5.098534 l 0.173496,-0.630861 c 0.635926,-2.31138 0.48554,-4.638584 -0.442954,-6.852263 -0.28066,-0.669123 -0.802144,-1.574521 -1.228477,-2.132898 -0.140369,-0.183822 -0.255267,-0.36068 -0.255267,-0.393213 0,-0.0758 0.731939,-0.301573 1.522004,-0.469371 0.3766,-0.08001 0.958747,-0.124933 1.545151,-0.132203 z m -14.149285,0.484813 a 0.43925668,0.43925668 0 0 0 -0.06592,0.0061 c 0,0 -0.343014,0.06378 -0.801686,0.298722 -0.458679,0.234919 -1.069528,0.6477 -1.715634,1.356341 -1.326005,1.454374 -1.625262,3.315939 -1.625262,3.315939 a 0.43925668,0.43925668 0 0 0 0.360488,0.505652 0.43925668,0.43925668 0 0 0 0.505671,-0.3598 c 0,0 0.291773,-1.645341 1.408104,-2.869736 0.575058,-0.630736 1.097503,-0.976935 1.467175,-1.166318 0.369729,-0.189384 0.54986,-0.215198 0.54986,-0.215198 a 0.43925668,0.43925668 0 0 0 0.358558,-0.507267 0.43925668,0.43925668 0 0 0 -0.44135,-0.364467 z m -5.802355,11.285666 h 2.716674 2.716536 v 1.195778 1.195973 h -2.497715 c -2.465619,0 -2.499484,-0.0023 -2.643398,-0.156457 -0.316339,-0.339558 -0.508166,-1.462515 -0.347787,-2.036084 z m 15.579837,0 h 7.245133 7.24528 l 0.09322,0.162922 c 0.05638,0.0987 0.0908,0.396066 0.08783,0.753182 -0.0041,0.501073 -0.03737,0.654096 -0.217507,1.01472 l -0.212151,0.424461 -7.072117,0.01865 c -3.889732,0.01015 -7.094211,-0.0036 -7.121008,-0.03014 -0.02693,-0.02673 -0.04869,-0.564985 -0.04869,-1.196146 z m -6.248004,1.75119 c 0.03156,-0.0051 0.08075,0.01812 0.156498,0.05875 0.411356,0.220157 1.457028,0.235845 2.159634,0.03234 0.15037,-0.04355 0.163115,-0.02395 0.163115,0.251116 v 0.298188 h -1.268359 -1.268351 v -0.326033 c 0,-0.218489 0.0047,-0.30587 0.05746,-0.314348 z m -7.482914,1.799868 h 0.344711 1.616822 1.616644 l 0.02194,3.27947 c 0.01964,2.908843 0.03612,3.309321 0.145671,3.542627 0.181673,0.386869 0.463175,0.692718 0.843172,0.916093 0.290853,0.170999 0.41545,0.197959 0.916454,0.197959 0.501961,0 0.625398,-0.02669 0.918808,-0.199212 0.186394,-0.109588 0.439987,-0.321645 0.563657,-0.471161 0.421526,-0.509649 0.438109,-0.665974 0.438109,-4.126232 v -3.139544 h 1.268355 1.268353 v 0.271786 c 0,0.650353 0.676014,1.499131 1.338259,1.684553 0.401583,0.112441 1.001698,0.0679 1.353478,-0.100236 0.594381,-0.284103 1.076331,-0.988057 1.076331,-1.572289 v -0.283814 h 6.204727 c 4.262868,0 5.640753,0.0079 6.027028,0.05642 l 0.134216,-0.01939 h 0.367868 c -0.810039,1.456318 -2.450219,4.473122 -4.652192,8.564122 -1.616681,3.003551 -3.171264,5.881231 -3.435912,6.359368 -2.241926,4.050324 -3.610007,6.040321 -4.448132,6.721852 -0.09945,0.08087 -0.303291,0.209615 -0.480674,0.300873 -0.190287,0.131377 -0.32174,0.06086 -0.499735,-0.03197 -0.688605,-0.362859 -1.633352,-1.465377 -3.066625,-3.86309 -1.082911,-1.811568 -2.028887,-3.528233 -5.027413,-9.127784 -1.259533,-2.352147 -2.601334,-4.835549 -3.660653,-6.780949 -0.474565,-0.87156 -0.864647,-1.58304 -1.193411,-2.179072 z M 41.51746,55.154968 A 0.52852609,0.52852609 0 0 0 41.071451,55.4192 l -1.021911,1.769873 a 0.52852609,0.52852609 0 0 0 0.193638,0.72156 0.52852609,0.52852609 0 0 0 0.721584,-0.193456 l 1.021718,-1.769875 a 0.52852609,0.52852609 0 0 0 -0.193482,-0.721746 0.52852609,0.52852609 0 0 0 -0.275538,-0.07059 z m -1.98721,3.419756 a 0.56291761,0.56291761 0 0 0 -0.484845,0.281658 l -4.081476,7.06943 a 0.56291761,0.56291761 0 0 0 0.20568,0.76934 0.56291761,0.56291761 0 0 0 0.769158,-0.205846 l 4.081674,-7.070155 a 0.56291761,0.56291761 0 0 0 -0.206378,-0.769169 0.56291761,0.56291761 0 0 0 -0.283813,-0.07525 z"
     clip-path="url(#clipPath903)" />
</svg>
